<svg xmlns="http://www.w3.org/2000/svg" width="110.523" height="110.531" viewBox="0 0 110.523 110.531">
  <g id="streaming_6332257" transform="translate(-1 -0.985)">
    <path id="Trazado_1057896" data-name="Trazado 1057896" d="M80.044,70.4a17.827,17.827,0,0,0-1.733-35.57c-.515,0-1.021.034-1.526.077a26.707,26.707,0,0,0-50.429,0c-.5-.043-1.011-.077-1.526-.077a17.827,17.827,0,0,0-1.822,35.561Z" transform="translate(4.694 12.534)" fill="#62c1ea"/>
    <circle id="Elipse_12604" data-name="Elipse 12604" cx="28.523" cy="28.523" r="28.523" transform="translate(27.741 52.71)" fill="#0056c0"/>
    <path id="Trazado_1057897" data-name="Trazado 1057897" d="M42.961,30a28.4,28.4,0,0,0-18.3,6.657A28.513,28.513,0,0,0,64.827,76.824,28.513,28.513,0,0,0,42.961,30Z" transform="translate(13.303 22.71)" fill="#0068dd"/>
    <circle id="Elipse_12605" data-name="Elipse 12605" cx="3.565" cy="3.565" r="3.565" transform="translate(52.699 93.712)" fill="#fff"/>
    <path id="Trazado_1057898" data-name="Trazado 1057898" d="M50.137,50.223l-5.045,5.045a10.673,10.673,0,0,0-15.117,0L24.93,50.223A17.818,17.818,0,0,1,50.137,50.223Z" transform="translate(18.73 34.451)" fill="#fff"/>
    <path id="Trazado_1057899" data-name="Trazado 1057899" d="M64.658,46.395,59.613,51.44a24.958,24.958,0,0,0-35.3,0L19.27,46.395a32.106,32.106,0,0,1,45.388,0Z" transform="translate(14.3 28.189)" fill="#fff"/>
    <g id="Grupo_1226249" data-name="Grupo 1226249" transform="translate(6.348 11.207)">
      <path id="Trazado_1057900" data-name="Trazado 1057900" d="M64.392,31.962H43V28.4H64.392a5.348,5.348,0,0,0,5.348-5.348V16.1h3.565v6.944A8.924,8.924,0,0,1,64.392,31.962Z" transform="translate(26.525 0.627)" fill="#fdb716"/>
      <path id="Trazado_1057901" data-name="Trazado 1057901" d="M34.306,32H12.914A8.924,8.924,0,0,1,4,23.085V16.058H7.565v7.027a5.348,5.348,0,0,0,5.348,5.348H34.306Z" transform="translate(-4 0.591)" fill="#fdb716"/>
      <path id="Trazado_1057902" data-name="Trazado 1057902" d="M31,6.719h3.565V27.655H31Z" transform="translate(17.133 -6.719)" fill="#fdb716"/>
      <path id="Trazado_1057903" data-name="Trazado 1057903" d="M40.045,29.94l-3.237-1.494,7.928-17.167A7.373,7.373,0,0,1,51.412,7h7.106v3.565H51.412a3.8,3.8,0,0,0-3.441,2.2Z" transform="translate(21.679 -6.499)" fill="#fdb716"/>
      <path id="Trazado_1057904" data-name="Trazado 1057904" d="M33.263,29.94,25.337,12.765a3.8,3.8,0,0,0-3.441-2.2H15.3V7h6.6a7.373,7.373,0,0,1,6.676,4.278L36.5,28.453Z" transform="translate(4.845 -6.499)" fill="#fdb716"/>
    </g>
    <path id="Trazado_1057905" data-name="Trazado 1057905" d="M75.177,34.828c-.515,0-1.021.034-1.526.077a26.707,26.707,0,0,0-50.429,0c-.5-.043-1.011-.077-1.526-.077a17.768,17.768,0,0,0-6.763,1.336A17.733,17.733,0,0,0,11,47.306V47.5a7.174,7.174,0,0,0,13.06,3.874,29.395,29.395,0,0,1,52.654,8.356,7.172,7.172,0,0,0,6.849,5.321,7.7,7.7,0,0,0,.95-.052,17.738,17.738,0,0,0,4.562-1.2,17.811,17.811,0,0,0-13.9-28.967Z" transform="translate(7.827 12.534)" fill="#86ddfa"/>
    <path id="Trazado_1057906" data-name="Trazado 1057906" d="M12.7,16.348A5.348,5.348,0,1,0,7.348,21.7,5.348,5.348,0,0,0,12.7,16.348" transform="translate(0.783 7.839)" fill="#0056c0"/>
    <path id="Trazado_1057907" data-name="Trazado 1057907" d="M6.565,11a5.286,5.286,0,0,0-2.77.8,5.286,5.286,0,0,0-.8,2.77,5.348,5.348,0,0,0,5.348,5.348,5.286,5.286,0,0,0,2.77-.8,5.286,5.286,0,0,0,.8-2.77A5.348,5.348,0,0,0,6.565,11Z" transform="translate(1.566 7.839)" fill="#0068dd"/>
    <path id="Trazado_1057908" data-name="Trazado 1057908" d="M20.7,10.348A5.348,5.348,0,1,0,15.348,15.7,5.348,5.348,0,0,0,20.7,10.348" transform="translate(7.045 3.143)" fill="#0056c0"/>
    <path id="Trazado_1057909" data-name="Trazado 1057909" d="M14.565,5a5.286,5.286,0,0,0-2.77.8,5.286,5.286,0,0,0-.8,2.77,5.348,5.348,0,0,0,5.348,5.348,5.286,5.286,0,0,0,2.77-.8,5.286,5.286,0,0,0,.8-2.77A5.348,5.348,0,0,0,14.565,5Z" transform="translate(7.827 3.143)" fill="#0068dd"/>
    <path id="Trazado_1057910" data-name="Trazado 1057910" d="M39.7,7.348A5.348,5.348,0,1,0,34.348,12.7,5.348,5.348,0,0,0,39.7,7.348" transform="translate(21.916 0.794)" fill="#0056c0"/>
    <path id="Trazado_1057911" data-name="Trazado 1057911" d="M33.565,2a5.286,5.286,0,0,0-2.77.8,5.286,5.286,0,0,0-.8,2.77,5.348,5.348,0,0,0,5.348,5.348,5.286,5.286,0,0,0,2.77-.8,5.286,5.286,0,0,0,.8-2.77A5.348,5.348,0,0,0,33.565,2Z" transform="translate(22.699 0.794)" fill="#0068dd"/>
    <path id="Trazado_1057912" data-name="Trazado 1057912" d="M58.7,10.348A5.348,5.348,0,1,0,53.348,15.7,5.348,5.348,0,0,0,58.7,10.348" transform="translate(36.787 3.143)" fill="#0056c0"/>
    <path id="Trazado_1057913" data-name="Trazado 1057913" d="M52.565,5a5.286,5.286,0,0,0-2.77.8,5.286,5.286,0,0,0-.8,2.77,5.348,5.348,0,0,0,5.348,5.348,5.286,5.286,0,0,0,2.77-.8,5.286,5.286,0,0,0,.8-2.77A5.348,5.348,0,0,0,52.565,5Z" transform="translate(37.57 3.143)" fill="#0068dd"/>
    <path id="Trazado_1057914" data-name="Trazado 1057914" d="M66.7,16.348A5.348,5.348,0,1,0,61.348,21.7,5.348,5.348,0,0,0,66.7,16.348" transform="translate(43.049 7.839)" fill="#0056c0"/>
    <path id="Trazado_1057915" data-name="Trazado 1057915" d="M60.565,11a5.286,5.286,0,0,0-2.77.8,5.286,5.286,0,0,0-.8,2.77,5.348,5.348,0,0,0,5.348,5.348,5.286,5.286,0,0,0,2.77-.8,5.286,5.286,0,0,0,.8-2.77A5.348,5.348,0,0,0,60.565,11Z" transform="translate(43.832 7.839)" fill="#0068dd"/>
    <path id="Trazado_1057916" data-name="Trazado 1057916" d="M34.348,52A5.348,5.348,0,1,0,39.7,57.348,5.348,5.348,0,0,0,34.348,52Zm0,7.131a1.783,1.783,0,1,1,1.783-1.783A1.783,1.783,0,0,1,34.348,59.131Z" transform="translate(21.916 39.93)"/>
    <path id="Trazado_1057917" data-name="Trazado 1057917" d="M38.316,44a19.483,19.483,0,0,0-13.864,5.746,1.783,1.783,0,0,0,0,2.521L29.5,57.311A1.769,1.769,0,0,0,32.02,57.3a8.892,8.892,0,0,1,12.586,0,1.769,1.769,0,0,0,2.522.013l5.045-5.045a1.783,1.783,0,0,0,0-2.521A19.483,19.483,0,0,0,38.316,44Zm7.473,9.616a12.479,12.479,0,0,0-14.946,0l-2.54-2.54a16.044,16.044,0,0,1,20.027,0Z" transform="translate(17.948 33.668)"/>
    <path id="Trazado_1057918" data-name="Trazado 1057918" d="M18.794,45.915a1.783,1.783,0,0,0,0,2.523l5.045,5.045a1.783,1.783,0,0,0,2.519,0,23.175,23.175,0,0,1,32.78,0,1.783,1.783,0,0,0,2.519,0L66.7,48.438a1.783,1.783,0,0,0,0-2.523,33.889,33.889,0,0,0-47.9,0ZM60.35,49.744a26.741,26.741,0,0,0-35.208,0l-2.53-2.53a30.322,30.322,0,0,1,40.268,0Z" transform="translate(13.518 27.406)"/>
    <path id="Trazado_1057919" data-name="Trazado 1057919" d="M104.4,17.056a7.117,7.117,0,0,0-1.783,14.008v3.819a5.348,5.348,0,0,1-5.348,5.348H79.808a28.586,28.586,0,0,0-10.12-9.092L76,17.466a3.8,3.8,0,0,1,3.441-2.193h3.819a7.131,7.131,0,1,0,0-3.565H79.439a7.373,7.373,0,0,0-6.676,4.278L66.452,29.658a28.345,28.345,0,0,0-8.405-1.838V15.02a7.131,7.131,0,1,0-3.565,0v12.8a28.345,28.345,0,0,0-8.405,1.831L39.765,15.986a7.373,7.373,0,0,0-6.676-4.278H29.27a7.131,7.131,0,1,0,0,3.565h3.819a3.8,3.8,0,0,1,3.441,2.2L42.84,31.147a28.586,28.586,0,0,0-10.12,9.085H15.262a5.348,5.348,0,0,1-5.348-5.348V31.065a7.131,7.131,0,1,0-3.565,0v3.819A8.924,8.924,0,0,0,15.262,43.8H30.647c-.283.585-.556,1.178-.8,1.783h-.321a19.61,19.61,0,0,0-3.387,38.913,30.306,30.306,0,0,0,60.255,0A19.61,19.61,0,0,0,83,45.579h-.321c-.246-.608-.519-1.2-.8-1.783H97.266a8.924,8.924,0,0,0,8.914-8.914V31.065A7.117,7.117,0,0,0,104.4,17.056ZM90.135,9.925a3.565,3.565,0,1,1-3.565,3.565A3.565,3.565,0,0,1,90.135,9.925ZM22.393,17.056a3.565,3.565,0,1,1,3.565-3.565A3.565,3.565,0,0,1,22.393,17.056ZM4.566,24.187a3.565,3.565,0,1,1,3.565,3.565A3.565,3.565,0,0,1,4.566,24.187ZM52.7,8.143a3.565,3.565,0,1,1,3.565,3.565A3.565,3.565,0,0,1,52.7,8.143Zm3.565,99.831A26.741,26.741,0,1,1,83,81.233,26.741,26.741,0,0,1,56.264,107.974ZM83,49.145a16.044,16.044,0,0,1,3.544,31.684,30.287,30.287,0,1,0-60.574,0,16.044,16.044,0,0,1,3.548-31.684c.465,0,.922.032,1.374.071a1.8,1.8,0,0,0,1.834-1.187,24.924,24.924,0,0,1,47.063,0,1.783,1.783,0,0,0,1.834,1.187c.453-.039.909-.071,1.374-.071ZM104.4,27.752a3.565,3.565,0,1,1,3.565-3.565A3.565,3.565,0,0,1,104.4,27.752Z"/>
  </g>
</svg>
