<svg xmlns="http://www.w3.org/2000/svg" xmlns:xlink="http://www.w3.org/1999/xlink" width="108" height="108" viewBox="0 0 108 108">
  <defs>
    <filter id="Trazado_904820" x="0" y="0" width="108" height="108" filterUnits="userSpaceOnUse">
      <feOffset dy="3" input="SourceAlpha"/>
      <feGaussianBlur stdDeviation="3" result="blur"/>
      <feFlood flood-opacity="0.161"/>
      <feComposite operator="in" in2="blur"/>
      <feComposite in="SourceGraphic"/>
    </filter>
  </defs>
  <g id="Grupo_1226251" data-name="Grupo 1226251" transform="translate(-199.656 -459)">
    <g id="Grupo_1174741" data-name="Grupo 1174741" transform="translate(208.656 465)">
      <g id="Grupo_1173585" data-name="Grupo 1173585" transform="translate(0 0)">
        <g id="Grupo_1173428" data-name="Grupo 1173428">
          <g id="Grupo_1171958" data-name="Grupo 1171958">
            <g id="Grupo_1167341" data-name="Grupo 1167341">
              <g id="Grupo_1166792" data-name="Grupo 1166792">
                <g transform="matrix(1, 0, 0, 1, -9, -6)" filter="url(#Trazado_904820)">
                  <g id="Trazado_904820-2" data-name="Trazado 904820" transform="translate(9 6)" fill="#fdf6e4">
                    <path d="M 44.99999618530273 88.50003051757812 C 39.12687301635742 88.50003051757812 33.43022155761719 87.35010528564453 28.06829643249512 85.08219146728516 C 22.88852119445801 82.89134216308594 18.23629570007324 79.75461578369141 14.24084663391113 75.75916290283203 C 10.24540901184082 71.76371765136719 7.108683586120605 67.11148834228516 4.917821407318115 61.93171691894531 C 2.649921178817749 56.56978988647461 1.499996185302734 50.87313842773438 1.499996185302734 45.00001525878906 C 1.499996185302734 39.12689208984375 2.649921178817749 33.43024063110352 4.917821407318115 28.06830215454102 C 7.108683586120605 22.88852691650391 10.24540901184082 18.23631477355957 14.24084663391113 14.24086570739746 C 18.23629570007324 10.24541568756104 22.88852119445801 7.10869026184082 28.06829643249512 4.917827606201172 C 33.43022155761719 2.649927854537964 39.12687301635742 1.50000274181366 44.99999618530273 1.50000274181366 C 50.87311935424805 1.50000274181366 56.56977081298828 2.649927854537964 61.93169784545898 4.917827606201172 C 67.11147308349609 7.10869026184082 71.76369476318359 10.24541568756104 75.75914764404297 14.24086570739746 C 79.75458526611328 18.23631477355957 82.89131164550781 22.88852691650391 85.08216857910156 28.06830215454102 C 87.35007476806641 33.43024063110352 88.5 39.12689208984375 88.5 45.00001525878906 C 88.5 50.87313842773438 87.35007476806641 56.56978988647461 85.08216857910156 61.93171691894531 C 82.89131164550781 67.11148834228516 79.75458526611328 71.76371765136719 75.75914764404297 75.75916290283203 C 71.76369476318359 79.75461578369141 67.11147308349609 82.89134216308594 61.93169784545898 85.08219146728516 C 56.56977081298828 87.35010528564453 50.87311935424805 88.50003051757812 44.99999618530273 88.50003051757812 Z" stroke="none"/>
                    <path d="M 44.99999618530273 3 C 39.32870864868164 3 33.82865142822266 4.110061645507812 28.65262603759766 6.299346923828125 C 23.65165710449219 8.414573669433594 19.15968322753906 11.44334411621094 15.301513671875 15.301513671875 C 11.44333648681641 19.15968322753906 8.414566040039062 23.65165710449219 6.299339294433594 28.65262985229492 C 4.110054016113281 33.82867050170898 2.999992370605469 39.32872772216797 2.999992370605469 45.00001525878906 C 2.999992370605469 50.67130279541016 4.110054016113281 56.17136001586914 6.299339294433594 61.34738922119141 C 8.414566040039062 66.34837341308594 11.44333648681641 70.84033203125 15.301513671875 74.69850158691406 C 19.15968322753906 78.55668640136719 23.65165710449219 81.58545684814453 28.65262603759766 83.70068359375 C 33.82865142822266 85.88996887207031 39.32870864868164 87.00003051757812 44.99999618530273 87.00003051757812 C 50.67128372192383 87.00003051757812 56.17134094238281 85.88996887207031 61.34736633300781 83.70068359375 C 66.34834289550781 81.58545684814453 70.84030914306641 78.55668640136719 74.69847869873047 74.69850158691406 C 78.55665588378906 70.84033203125 81.58542633056641 66.34837341308594 83.70065307617188 61.34738922119141 C 85.88993835449219 56.17136001586914 87 50.67130279541016 87 45.00001525878906 C 87 39.32872772216797 85.88993835449219 33.82867050170898 83.70065307617188 28.65262985229492 C 81.58542633056641 23.65165710449219 78.55665588378906 19.15968322753906 74.69847869873047 15.301513671875 C 70.84030914306641 11.44334411621094 66.34834289550781 8.414573669433594 61.34736633300781 6.299346923828125 C 56.17134094238281 4.110061645507812 50.67128372192383 3 44.99999618530273 3 M 44.99999618530273 0 C 69.85281372070312 0 90 20.14718627929688 90 45.00001525878906 C 90 69.85282897949219 69.85281372070312 90.00003051757812 44.99999618530273 90.00003051757812 C 20.14717864990234 90.00003051757812 -7.62939453125e-06 69.85282897949219 -7.62939453125e-06 45.00001525878906 C -7.62939453125e-06 20.14718627929688 20.14717864990234 0 44.99999618530273 0 Z" stroke="none" fill="#856002"/>
                  </g>
                </g>
              </g>
            </g>
          </g>
        </g>
      </g>
    </g>
    <g id="wifi_6487388" transform="translate(211.106 467.024)">
      <g id="Grupo_1226250" data-name="Grupo 1226250" transform="translate(9.937 10.367)">
        <circle id="Elipse_12606" data-name="Elipse 12606" cx="16.307" cy="16.307" r="16.307" transform="translate(16.307 16.307)" fill="#ffda44"/>
        <circle id="Elipse_12607" data-name="Elipse 12607" cx="11.859" cy="11.859" r="11.859" transform="translate(20.754 20.754)" fill="#91cc04"/>
        <circle id="Elipse_12608" data-name="Elipse 12608" cx="2.965" cy="2.965" r="2.965" transform="translate(29.649 0)" fill="#91cc04"/>
        <circle id="Elipse_12609" data-name="Elipse 12609" cx="2.965" cy="2.965" r="2.965" transform="translate(29.649 59.297)" fill="#91cc04"/>
        <circle id="Elipse_12610" data-name="Elipse 12610" cx="2.965" cy="2.965" r="2.965" transform="translate(59.297 29.649)" fill="#91cc04"/>
        <circle id="Elipse_12611" data-name="Elipse 12611" cx="2.965" cy="2.965" r="2.965" transform="translate(0 29.649)" fill="#91cc04"/>
        <circle id="Elipse_12612" data-name="Elipse 12612" cx="3.29" cy="3.29" r="3.29" transform="translate(50.263 8.378)" fill="#e0e0e2"/>
        <circle id="Elipse_12613" data-name="Elipse 12613" cx="3.29" cy="3.29" r="3.29" transform="translate(8.383 50.258)" fill="#e0e0e2"/>
        <circle id="Elipse_12614" data-name="Elipse 12614" cx="3.29" cy="3.29" r="3.29" transform="translate(50.263 50.258)" fill="#e0e0e2"/>
        <circle id="Elipse_12615" data-name="Elipse 12615" cx="3.29" cy="3.29" r="3.29" transform="translate(8.383 8.378)" fill="#e0e0e2"/>
        <circle id="Elipse_12616" data-name="Elipse 12616" cx="2.194" cy="2.194" r="2.194" transform="translate(30.345 33.573)" fill="#e0e0e2"/>
      </g>
      <path id="Trazado_1057920" data-name="Trazado 1057920" d="M221.8,232.97a6.544,6.544,0,0,0-5.138,2.472,1.1,1.1,0,0,0,1.714,1.369,4.385,4.385,0,0,1,6.973.161,1.1,1.1,0,1,0,1.774-1.291A6.6,6.6,0,0,0,221.8,232.97Z" transform="translate(-179.37 -193.284)"/>
      <path id="Trazado_1057921" data-name="Trazado 1057921" d="M205.618,208.97a9.827,9.827,0,0,0-7.708,3.7,1.1,1.1,0,1,0,1.712,1.371,7.681,7.681,0,0,1,12.207.28,1.1,1.1,0,0,0,1.773-1.292A9.912,9.912,0,0,0,205.618,208.97Z" transform="translate(-163.19 -172.575)"/>
      <path id="Trazado_1057922" data-name="Trazado 1057922" d="M235.939,256.97a3.29,3.29,0,1,0,3.29,3.29A3.29,3.29,0,0,0,235.939,256.97Zm0,4.387a1.1,1.1,0,1,1,1.1-1.1A1.1,1.1,0,0,1,235.939,261.357Z" transform="translate(-193.375 -213.994)"/>
      <path id="Trazado_1057923" data-name="Trazado 1057923" d="M173.706,160.97a13.162,13.162,0,1,0,13.162,13.162A13.162,13.162,0,0,0,173.706,160.97Zm0,24.13a10.968,10.968,0,1,1,10.968-10.968A10.968,10.968,0,0,1,173.706,185.1Z" transform="translate(-131.155 -131.155)"/>
      <path id="Trazado_1057924" data-name="Trazado 1057924" d="M72.164,38.589a4.4,4.4,0,0,0-4.249,3.29H60.063A17.471,17.471,0,0,0,55.7,31.373l5.558-5.558a4.387,4.387,0,1,0-1.551-1.551l-5.558,5.558a17.471,17.471,0,0,0-10.506-4.36V17.611a4.387,4.387,0,1,0-2.194,0v7.852a17.471,17.471,0,0,0-10.506,4.36l-5.558-5.558a4.379,4.379,0,1,0-1.551,1.551L29.4,31.373a17.471,17.471,0,0,0-4.36,10.506H17.185a4.387,4.387,0,1,0,0,2.194h7.851A17.471,17.471,0,0,0,29.4,54.579l-5.558,5.558a4.387,4.387,0,1,0,1.551,1.551l5.558-5.558a17.471,17.471,0,0,0,10.506,4.36v7.852a4.387,4.387,0,1,0,2.194,0V60.489a17.47,17.47,0,0,0,10.506-4.36l5.558,5.558a4.387,4.387,0,1,0,1.551-1.551L55.7,54.579a17.471,17.471,0,0,0,4.36-10.506h7.852a4.387,4.387,0,1,0,4.249-5.484Zm-10.225-18.1a2.188,2.188,0,1,1-.645,1.551A2.194,2.194,0,0,1,61.939,20.485Zm-38.777,3.1a2.194,2.194,0,1,1,0-3.1,2.194,2.194,0,0,1,0,3.1ZM12.936,45.17a2.194,2.194,0,1,1,2.194-2.194A2.194,2.194,0,0,1,12.936,45.17Zm10.225,20.3a2.194,2.194,0,1,1,0-3.1,2.194,2.194,0,0,1,0,3.1Zm38.777-3.1a2.188,2.188,0,1,1-.645,1.551,2.194,2.194,0,0,1,.645-1.551Zm-21.582-49a2.194,2.194,0,1,1,2.194,2.194A2.194,2.194,0,0,1,40.357,13.362ZM44.744,72.59A2.194,2.194,0,1,1,42.55,70.4a2.194,2.194,0,0,1,2.194,2.194ZM42.55,58.331A15.355,15.355,0,1,1,57.905,42.976,15.355,15.355,0,0,1,42.55,58.331ZM72.164,45.17a2.194,2.194,0,1,1,2.194-2.194A2.194,2.194,0,0,1,72.164,45.17Z"/>
    </g>
  </g>
</svg>
