<svg xmlns="http://www.w3.org/2000/svg" xmlns:xlink="http://www.w3.org/1999/xlink" width="108" height="108" viewBox="0 0 108 108">
  <defs>
    <filter id="Trazado_904820" x="0" y="0" width="108" height="108" filterUnits="userSpaceOnUse">
      <feOffset dy="3" input="SourceAlpha"/>
      <feGaussianBlur stdDeviation="3" result="blur"/>
      <feFlood flood-opacity="0.161"/>
      <feComposite operator="in" in2="blur"/>
      <feComposite in="SourceGraphic"/>
    </filter>
  </defs>
  <g id="Grupo_1226497" data-name="Grupo 1226497" transform="translate(-620 -1471.276)">
    <g id="Grupo_1226276" data-name="Grupo 1226276" transform="translate(629 1477.276)">
      <g id="Grupo_1174741" data-name="Grupo 1174741" transform="translate(0 0)">
        <g id="Grupo_1173585" data-name="Grupo 1173585" transform="translate(0 0)">
          <g id="Grupo_1173428" data-name="Grupo 1173428">
            <g id="Grupo_1171958" data-name="Grupo 1171958">
              <g id="Grupo_1167341" data-name="Grupo 1167341">
                <g id="Grupo_1166792" data-name="Grupo 1166792">
                  <g transform="matrix(1, 0, 0, 1, -9, -6)" filter="url(#Trazado_904820)">
                    <g id="Trazado_904820-2" data-name="Trazado 904820" transform="translate(9 6)" fill="#fdf6e4">
                      <path d="M 44.99999618530273 88.50002288818359 C 39.12687301635742 88.50002288818359 33.43022155761719 87.35009765625 28.06829643249512 85.08218383789062 C 22.88852119445801 82.89133453369141 18.23629570007324 79.75460815429688 14.24084663391113 75.75916290283203 C 10.24540901184082 71.76371002197266 7.108683586120605 67.11148834228516 4.917821407318115 61.93171310424805 C 2.649921178817749 56.56978607177734 1.499996185302734 50.87313461303711 1.499996185302734 45.0000114440918 C 1.499996185302734 39.12688827514648 2.649921178817749 33.43023681640625 4.917821407318115 28.06829833984375 C 7.108683586120605 22.88852310180664 10.24540901184082 18.2363109588623 14.24084663391113 14.2408618927002 C 18.23629570007324 10.24541187286377 22.88852119445801 7.108686447143555 28.06829643249512 4.917823791503906 C 33.43022155761719 2.649924039840698 39.12687301635742 1.499998927116394 44.99999618530273 1.499998927116394 C 50.87311935424805 1.499998927116394 56.56977081298828 2.649924039840698 61.93169784545898 4.917823791503906 C 67.11147308349609 7.108686447143555 71.76369476318359 10.24541187286377 75.75914764404297 14.2408618927002 C 79.75458526611328 18.2363109588623 82.89131164550781 22.88852310180664 85.08216857910156 28.06829833984375 C 87.35007476806641 33.43023681640625 88.5 39.12688827514648 88.5 45.0000114440918 C 88.5 50.87313461303711 87.35007476806641 56.56978607177734 85.08216857910156 61.93171310424805 C 82.89131164550781 67.11148834228516 79.75458526611328 71.76371002197266 75.75914764404297 75.75916290283203 C 71.76369476318359 79.75460815429688 67.11147308349609 82.89133453369141 61.93169784545898 85.08218383789062 C 56.56977081298828 87.35009765625 50.87311935424805 88.50002288818359 44.99999618530273 88.50002288818359 Z" stroke="none"/>
                      <path d="M 44.99999618530273 3 C 39.32870864868164 3 33.82865142822266 4.110054016113281 28.65262603759766 6.299339294433594 C 23.65165710449219 8.414566040039062 19.15968322753906 11.44333648681641 15.301513671875 15.30152893066406 C 11.44333648681641 19.15969848632812 8.414566040039062 23.65165710449219 6.299339294433594 28.65264129638672 C 4.110054016113281 33.82866668701172 2.999992370605469 39.3287239074707 2.999992370605469 45.0000114440918 C 2.999992370605469 50.67129898071289 4.110054016113281 56.17135620117188 6.299339294433594 61.34738159179688 C 8.414566040039062 66.34836578369141 11.44333648681641 70.84032440185547 15.301513671875 74.69849395751953 C 19.15968322753906 78.55668640136719 23.65165710449219 81.58545684814453 28.65262603759766 83.70068359375 C 33.82865142822266 85.88996887207031 39.32870864868164 87.00002288818359 44.99999618530273 87.00002288818359 C 50.67128372192383 87.00002288818359 56.17134094238281 85.88996887207031 61.34736633300781 83.70068359375 C 66.34834289550781 81.58545684814453 70.84030914306641 78.55668640136719 74.69847869873047 74.69849395751953 C 78.55665588378906 70.84032440185547 81.58542633056641 66.34836578369141 83.70065307617188 61.34738159179688 C 85.88993835449219 56.17135620117188 87 50.67129898071289 87 45.0000114440918 C 87 39.3287239074707 85.88993835449219 33.82866668701172 83.70065307617188 28.65264129638672 C 81.58542633056641 23.65165710449219 78.55665588378906 19.15969848632812 74.69847869873047 15.30152893066406 C 70.84030914306641 11.44333648681641 66.34834289550781 8.414566040039062 61.34736633300781 6.299339294433594 C 56.17134094238281 4.110054016113281 50.67128372192383 3 44.99999618530273 3 M 44.99999618530273 0 C 69.85281372070312 0 90 20.14719390869141 90 45.0000114440918 C 90 69.85282897949219 69.85281372070312 90.00002288818359 44.99999618530273 90.00002288818359 C 20.14717864990234 90.00002288818359 -7.62939453125e-06 69.85282897949219 -7.62939453125e-06 45.0000114440918 C -7.62939453125e-06 20.14719390869141 20.14717864990234 0 44.99999618530273 0 Z" stroke="none" fill="#f5b104"/>
                    </g>
                  </g>
                </g>
              </g>
            </g>
          </g>
        </g>
      </g>
    </g>
    <g id="Filled_outline" data-name="Filled outline" transform="translate(629.29 1477.567)">
      <path id="Trazado_1057910" data-name="Trazado 1057910" d="M91.828,72h38.28a3.828,3.828,0,0,1,3.828,3.828v29.667a2.871,2.871,0,0,1-2.871,2.871H90.871A2.871,2.871,0,0,1,88,105.495V75.828A3.828,3.828,0,0,1,91.828,72Z" transform="translate(-63.387 -49.301)" fill="#4db7e5"/>
      <path id="Trazado_1057911" data-name="Trazado 1057911" d="M432.957,72H432v36.366h1.914V72.121A3.835,3.835,0,0,0,432.957,72Z" transform="translate(-366.236 -49.301)" fill="#48add9"/>
      <path id="Trazado_1057912" data-name="Trazado 1057912" d="M160.538,24h-28.71A3.828,3.828,0,0,0,128,27.828V68.022h36.366V27.828A3.828,3.828,0,0,0,160.538,24Z" transform="translate(-98.602 -7.043)" fill="#348fd9"/>
      <path id="Trazado_1057913" data-name="Trazado 1057913" d="M174.93,100,140,134.93h34.93Z" transform="translate(-109.167 -73.952)" fill="#3086cd"/>
      <path id="Trazado_1057914" data-name="Trazado 1057914" d="M200.882,132.441q0,.483-.036.957a12.425,12.425,0,0,1-10.673,11.363c-.256.037-.514.065-.775.085q-.474.036-.957.036t-.957-.036c-.261-.02-.519-.048-.775-.085a12.282,12.282,0,0,1-2.9-.769,12.44,12.44,0,0,1-7.776-10.594q-.036-.474-.036-.957t.036-.957a12.426,12.426,0,0,1,10.538-11.344q.45-.068.91-.1t.957-.036q.483,0,.957.036c.261.02.519.048.775.085a12.277,12.277,0,0,1,2.895.768,12.483,12.483,0,0,1,6.412,5.81,12.341,12.341,0,0,1,1.366,4.785Q200.882,131.958,200.882,132.441Z" transform="translate(-140.86 -91.559)" fill="#4db7e5"/>
      <path id="Trazado_1057915" data-name="Trazado 1057915" d="M200.846,133.4q.036-.474.036-.957t-.036-.957h-4.767a24.342,24.342,0,0,0-.656-4.785h4.056a12.368,12.368,0,0,0-1.232-1.914h-3.378a19.68,19.68,0,0,0-1.8-3.9,12.276,12.276,0,0,0-2.895-.768l.668.861a16.765,16.765,0,0,1,2,3.8H189.4v-4.749q-.474-.036-.957-.036t-.957.036v4.749h-3.439a16.7,16.7,0,0,1,2.007-3.817c.012-.016.022-.032.032-.048l.489-.78a12.32,12.32,0,0,0-2.76.749,19.619,19.619,0,0,0-1.8,3.9h-3.378A12.369,12.369,0,0,0,177.4,126.7h4.056a24.318,24.318,0,0,0-.656,4.785h-4.767q-.036.474-.036.957t.036.957H180.8a23.982,23.982,0,0,0,.914,5.742h-3.763a12.49,12.49,0,0,0,1.51,1.914h2.9a18.618,18.618,0,0,0,1.445,2.938,12.282,12.282,0,0,0,2.9.769l-.668-.862a15.848,15.848,0,0,1-1.6-2.845h3.047v3.792q.474.036.957.036t.957-.036v-3.792h3.047a15.786,15.786,0,0,1-1.6,2.845l-.668.862a12.281,12.281,0,0,0,2.9-.769,18.514,18.514,0,0,0,1.445-2.938h2.9a12.49,12.49,0,0,0,1.51-1.914h-3.763a24.019,24.019,0,0,0,.914-5.742Zm-13.362,5.742h-3.765a21.879,21.879,0,0,1-1-5.742h4.765Zm0-7.656h-4.766a22.239,22.239,0,0,1,.714-4.785h4.052Zm5.679,7.656H189.4V133.4h4.765a21.922,21.922,0,0,1-1,5.742Zm-3.765-7.656V126.7h4.052a22.271,22.271,0,0,1,.714,4.785Z" transform="translate(-140.86 -91.559)" fill="#60d1e0"/>
      <path id="Trazado_1057916" data-name="Trazado 1057916" d="M103.184,360.957a3.267,3.267,0,0,1-2.31.957h-7.82a3.268,3.268,0,0,1-2.31-.957,3.267,3.267,0,0,0-2.31-.957H72v2.871a2.871,2.871,0,0,0,2.871,2.871h44.022a2.871,2.871,0,0,0,2.871-2.871V360H105.495a3.268,3.268,0,0,0-2.31.957Z" transform="translate(-49.301 -302.849)" fill="#e0e0de"/>
      <path id="Trazado_1057917" data-name="Trazado 1057917" d="M434.871,360v2.871A2.871,2.871,0,0,1,432,365.742h3.828a2.871,2.871,0,0,0,2.871-2.871V360Z" transform="translate(-366.236 -302.849)" fill="#d6d6d4"/>
      <path id="Trazado_1057918" data-name="Trazado 1057918" d="M50.8,354.153v11.962A2.127,2.127,0,0,1,50.5,367.2a2.149,2.149,0,0,1-1.859,1.068H26.153a2.149,2.149,0,0,1-1.859-1.068A2.127,2.127,0,0,1,24,366.116V354.153a2.127,2.127,0,0,1,.294-1.085A2.149,2.149,0,0,1,26.153,352H48.642a2.149,2.149,0,0,1,1.859,1.068,2.127,2.127,0,0,1,.294,1.085Z" transform="translate(-7.043 -295.806)" fill="#ffb531"/>
      <path id="Trazado_1057919" data-name="Trazado 1057919" d="M52.667,353.068c-2.963,1.65-7.729,2.72-13.1,2.72s-10.141-1.071-13.1-2.72A2.149,2.149,0,0,1,28.319,352H50.808a2.149,2.149,0,0,1,1.859,1.068Z" transform="translate(-9.209 -295.806)" fill="#ffcb73"/>
      <path id="Trazado_1057920" data-name="Trazado 1057920" d="M52.667,459.05a2.149,2.149,0,0,1-1.859,1.068H28.319a2.149,2.149,0,0,1-1.859-1.068c2.963-1.65,7.729-2.72,13.1-2.72S49.7,457.4,52.667,459.05Z" transform="translate(-9.209 -387.656)" fill="#ffa912"/>
      <path id="Trazado_1057921" data-name="Trazado 1057921" d="M58.527,216A10.527,10.527,0,0,0,48,226.527v5.742h3.828v-5.742a6.7,6.7,0,1,1,13.4,0v5.742h3.828v-5.742A10.527,10.527,0,0,0,58.527,216Z" transform="translate(-28.172 -176.075)" fill="#e0e0de"/>
      <path id="Trazado_1057922" data-name="Trazado 1057922" d="M117.739,394.779a2.871,2.871,0,1,0-3.828,2.695v2.09h1.914v-2.09A2.866,2.866,0,0,0,117.739,394.779Z" transform="translate(-84.513 -330.93)" fill="#95573a"/>
      <path id="Trazado_1057923" data-name="Trazado 1057923" d="M128.807,56.194h-.957V26.527a4.79,4.79,0,0,0-4.785-4.785v-.957A4.79,4.79,0,0,0,118.28,16H89.57a4.79,4.79,0,0,0-4.785,4.785v.957A4.79,4.79,0,0,0,80,26.527V38.011h1.914V26.527a2.874,2.874,0,0,1,2.871-2.871v13.4H86.7V20.785a2.874,2.874,0,0,1,2.871-2.871h28.71a2.874,2.874,0,0,1,2.871,2.871V53.323h1.914V23.656a2.874,2.874,0,0,1,2.871,2.871V56.194h-13.4a4.191,4.191,0,0,0-2.983,1.237,2.3,2.3,0,0,1-1.639.677h-4.948v1.914h4.948a4.2,4.2,0,0,0,2.993-1.237,2.29,2.29,0,0,1,1.63-.677H127.85v1.914a1.916,1.916,0,0,1-1.914,1.914H102.968V63.85h22.968a3.832,3.832,0,0,0,3.828-3.828V57.151A.957.957,0,0,0,128.807,56.194Z" transform="translate(-56.344)"/>
      <path id="Trazado_1057924" data-name="Trazado 1057924" d="M120,272h1.914v6.7H120Z" transform="translate(-91.559 -225.376)"/>
      <path id="Trazado_1057925" data-name="Trazado 1057925" d="M159.995,48h1.914v1.914h-1.914Z" transform="translate(-126.77 -28.172)"/>
      <path id="Trazado_1057926" data-name="Trazado 1057926" d="M191.995,48h1.914v1.914h-1.914Z" transform="translate(-154.942 -28.172)"/>
      <path id="Trazado_1057927" data-name="Trazado 1057927" d="M224,48h1.914v1.914H224Z" transform="translate(-183.114 -28.172)"/>
      <path id="Trazado_1057928" data-name="Trazado 1057928" d="M160,80h28.71v1.914H160Z" transform="translate(-126.774 -56.344)"/>
      <path id="Trazado_1057929" data-name="Trazado 1057929" d="M181.11,136.5c-.2-.052-.407-.111-.607-.175l-.585,1.822c.236.076.476.145.709.205a13.4,13.4,0,1,0-7.872-20.172A13.23,13.23,0,0,0,171,122.309l1.863.441a11.31,11.31,0,0,1,1.234-3.091h2.96a24.449,24.449,0,0,0-.674,5.742c0,.663.027,1.332.079,1.99l1.908-.153c-.023-.292-.041-.586-.053-.881h4.765V132.1h-2.871v1.914h2.871v2.828A11.46,11.46,0,0,1,181.11,136.5Zm10.515-2.49a11.53,11.53,0,0,1-2.178,1.513c.241-.49.464-.993.666-1.513Zm1.736-1.914h-2.6a24.068,24.068,0,0,0,.915-5.742h3.808A11.282,11.282,0,0,1,193.362,132.1Zm-11.905-17.887a11.431,11.431,0,0,1,1.626-.253v3.785h-3.436A16.922,16.922,0,0,1,181.456,114.212Zm3.54-.253a11.454,11.454,0,0,1,1.626.253,16.921,16.921,0,0,1,1.811,3.532H185Zm4.051,5.7a22.258,22.258,0,0,1,.714,4.785H185v-4.785Zm6.436,4.785h-3.805a24.284,24.284,0,0,0-.655-4.785h2.959a11.375,11.375,0,0,1,1.5,4.785Zm-2.888-6.7h-2.128a20.559,20.559,0,0,0-1.027-2.484,11.377,11.377,0,0,1,3.155,2.484Zm-13.955-2.484a20.563,20.563,0,0,0-1.027,2.484h-2.128a11.376,11.376,0,0,1,3.155-2.484Zm-.322,9.183a22.251,22.251,0,0,1,.714-4.785h4.051v4.785ZM185,126.357h4.765a21.92,21.92,0,0,1-1,5.742H185Zm3.045,7.656a15.96,15.96,0,0,1-1.417,2.575,11.414,11.414,0,0,1-1.628.254v-2.828Z" transform="translate(-136.458 -84.518)"/>
      <path id="Trazado_1057930" data-name="Trazado 1057930" d="M41.839,224.288v-4.8a11.484,11.484,0,0,0-22.968,0v4.8a3.222,3.222,0,0,0-2.871,3.2v11.747a3.222,3.222,0,0,0,3.218,3.218H41.492a3.222,3.222,0,0,0,3.218-3.218V227.487a3.222,3.222,0,0,0-2.871-3.2ZM30.355,209.914a9.581,9.581,0,0,1,9.57,9.57v4.785H38.011v-4.785a7.656,7.656,0,1,0-15.312,0v4.785H20.785v-4.785A9.581,9.581,0,0,1,30.355,209.914ZM36.1,224.269H24.613v-4.785a5.742,5.742,0,0,1,11.484,0Zm6.7,14.965a1.305,1.305,0,0,1-1.3,1.3H19.218a1.305,1.305,0,0,1-1.3-1.3V227.487a1.305,1.305,0,0,1,1.3-1.3H41.492a1.305,1.305,0,0,1,1.3,1.3Z" transform="translate(0 -169.032)"/>
      <path id="Trazado_1057931" data-name="Trazado 1057931" d="M114.877,392a2.871,2.871,0,0,0-.957,5.577v2.079h1.914v-2.079a2.871,2.871,0,0,0-.957-5.577Zm0,3.828a.957.957,0,1,1,.957-.957A.957.957,0,0,1,114.877,395.828Z" transform="translate(-84.523 -331.021)"/>
    </g>
  </g>
</svg>
