<svg xmlns="http://www.w3.org/2000/svg" xmlns:xlink="http://www.w3.org/1999/xlink" width="113" height="113" viewBox="0 0 113 113">
  <defs>
    <filter id="Trazado_982547" x="0" y="0" width="113" height="113" filterUnits="userSpaceOnUse">
      <feOffset dy="3" input="SourceAlpha"/>
      <feGaussianBlur stdDeviation="3" result="blur"/>
      <feFlood flood-opacity="0.161"/>
      <feComposite operator="in" in2="blur"/>
      <feComposite in="SourceGraphic"/>
    </filter>
  </defs>
  <g id="Grupo_1226271" data-name="Grupo 1226271" transform="translate(-324.656 -2260)">
    <g id="Grupo_1226084" data-name="Grupo 1226084" transform="translate(333.656 2266)">
      <g id="Grupo_1225173" data-name="Grupo 1225173">
        <g id="Grupo_1224643" data-name="Grupo 1224643">
          <g id="Grupo_1224291" data-name="Grupo 1224291">
            <g id="Grupo_1224091" data-name="Grupo 1224091">
              <g id="Grupo_1223183" data-name="Grupo 1223183" transform="translate(0)">
                <g id="Grupo_1211217" data-name="Grupo 1211217">
                  <g id="Grupo_1210736" data-name="Grupo 1210736">
                    <g id="Grupo_1210537" data-name="Grupo 1210537">
                      <g id="Grupo_1164202" data-name="Grupo 1164202">
                        <g id="Grupo_1158168" data-name="Grupo 1158168">
                          <g id="Grupo_1152576" data-name="Grupo 1152576">
                            <g id="Grupo_1148633" data-name="Grupo 1148633">
                              <g id="Grupo_1148525" data-name="Grupo 1148525">
                                <g transform="matrix(1, 0, 0, 1, -9, -6)" filter="url(#Trazado_982547)">
                                  <g id="Trazado_982547-2" data-name="Trazado 982547" transform="translate(9 6)" fill="#fdf6e4">
                                    <path d="M 47.49999618530273 93.5 C 41.28936767578125 93.5 35.26533126831055 92.28396606445312 29.59518241882324 89.88570404052734 C 24.11771583557129 87.56893157958984 19.19812965393066 84.251953125 14.97308921813965 80.02690124511719 C 10.74803638458252 75.80186462402344 7.431062698364258 70.88227844238281 5.114289283752441 65.40480804443359 C 2.716022968292236 59.73466110229492 1.499996185302734 53.71062469482422 1.499996185302734 47.49999618530273 C 1.499996185302734 41.28936767578125 2.716022968292236 35.26533126831055 5.114289283752441 29.59518241882324 C 7.431062698364258 24.11771583557129 10.74803638458252 19.19812965393066 14.97308921813965 14.97308921813965 C 19.19812965393066 10.74803638458252 24.11771583557129 7.431062698364258 29.59518241882324 5.114289283752441 C 35.26533126831055 2.716022968292236 41.28936767578125 1.499996185302734 47.49999618530273 1.499996185302734 C 53.71062469482422 1.499996185302734 59.73466110229492 2.716022968292236 65.40480804443359 5.114289283752441 C 70.88227844238281 7.431062698364258 75.80186462402344 10.74803638458252 80.02690124511719 14.97308921813965 C 84.251953125 19.19812965393066 87.56893157958984 24.11771583557129 89.88570404052734 29.59518241882324 C 92.28396606445312 35.26533126831055 93.5 41.28936767578125 93.5 47.49999618530273 C 93.5 53.71062469482422 92.28396606445312 59.73466110229492 89.88570404052734 65.40480804443359 C 87.56893157958984 70.88227844238281 84.251953125 75.80186462402344 80.02690124511719 80.02690124511719 C 75.80186462402344 84.251953125 70.88227844238281 87.56893157958984 65.40480804443359 89.88570404052734 C 59.73466110229492 92.28396606445312 53.71062469482422 93.5 47.49999618530273 93.5 Z" stroke="none"/>
                                    <path d="M 47.49999618530273 2.999992370605469 C 41.4912109375 2.999992370605469 35.66376495361328 4.1761474609375 30.17950439453125 6.495796203613281 C 24.88084411621094 8.736953735351562 20.12152099609375 11.94598388671875 16.03375244140625 16.03375244140625 C 11.94598388671875 20.12152099609375 8.736953735351562 24.88084411621094 6.495796203613281 30.17950439453125 C 4.1761474609375 35.66376495361328 2.999992370605469 41.4912109375 2.999992370605469 47.49999618530273 C 2.999992370605469 53.50878143310547 4.1761474609375 59.33622741699219 6.495796203613281 64.82048797607422 C 8.736953735351562 70.11914825439453 11.94598388671875 74.87847137451172 16.03375244140625 78.96623992919922 C 20.12152099609375 83.05400848388672 24.88084411621094 86.26304626464844 30.17950439453125 88.50419616699219 C 35.66376495361328 90.82384490966797 41.4912109375 92 47.49999618530273 92 C 53.50878143310547 92 59.33622741699219 90.82384490966797 64.82048797607422 88.50419616699219 C 70.11914825439453 86.26304626464844 74.87847137451172 83.05400848388672 78.96623992919922 78.96623992919922 C 83.05400848388672 74.87847137451172 86.26304626464844 70.11914825439453 88.50419616699219 64.82048797607422 C 90.82384490966797 59.33622741699219 92 53.50878143310547 92 47.49999618530273 C 92 41.4912109375 90.82384490966797 35.66376495361328 88.50419616699219 30.17950439453125 C 86.26304626464844 24.88084411621094 83.05400848388672 20.12152099609375 78.96623992919922 16.03375244140625 C 74.87847137451172 11.94598388671875 70.11914825439453 8.736953735351562 64.82048797607422 6.495796203613281 C 59.33622741699219 4.1761474609375 53.50878143310547 2.999992370605469 47.49999618530273 2.999992370605469 M 47.49999618530273 -7.62939453125e-06 C 73.7335205078125 -7.62939453125e-06 95 21.26647186279297 95 47.49999618530273 C 95 73.7335205078125 73.7335205078125 95 47.49999618530273 95 C 21.26647186279297 95 -7.62939453125e-06 73.7335205078125 -7.62939453125e-06 47.49999618530273 C -7.62939453125e-06 21.26647186279297 21.26647186279297 -7.62939453125e-06 47.49999618530273 -7.62939453125e-06 Z" stroke="none" fill="#f5b104"/>
                                  </g>
                                </g>
                              </g>
                            </g>
                          </g>
                        </g>
                      </g>
                    </g>
                  </g>
                </g>
              </g>
            </g>
          </g>
        </g>
      </g>
    </g>
    <g id="slideshow_5766990" transform="translate(346.656 2281)">
      <rect id="Rectángulo_422427" data-name="Rectángulo 422427" width="38" height="44" rx="3" transform="translate(14.543 10.48)" fill="#f5f5f5"/>
      <path id="Trazado_1057966" data-name="Trazado 1057966" d="M44.354,10H41a3.354,3.354,0,0,1,3.354,3.354V51.37A3.354,3.354,0,0,1,41,54.724h3.354a3.354,3.354,0,0,0,3.354-3.354V13.354A3.354,3.354,0,0,0,44.354,10Z" transform="translate(4.842 0.118)" fill="#cfd8dc"/>
      <path id="Trazado_1057967" data-name="Trazado 1057967" d="M14.417,15V48.543H4.354A3.354,3.354,0,0,1,1,45.189V18.354A3.354,3.354,0,0,1,4.354,15Z" transform="translate(0.118 0.709)" fill="#02a9f4"/>
      <path id="Trazado_1057968" data-name="Trazado 1057968" d="M10,15h3.354V48.543H10Z" transform="translate(1.181 0.709)" fill="#0377bc"/>
      <path id="Trazado_1057969" data-name="Trazado 1057969" d="M60.417,18.354V45.189a3.354,3.354,0,0,1-3.354,3.354H47V15H57.063a3.354,3.354,0,0,1,3.354,3.354Z" transform="translate(5.551 0.709)" fill="#02a9f4"/>
      <path id="Trazado_1057970" data-name="Trazado 1057970" d="M56.354,15H53a3.354,3.354,0,0,1,3.354,3.354V45.189A3.354,3.354,0,0,1,53,48.543h3.354a3.354,3.354,0,0,0,3.354-3.354V18.354A3.354,3.354,0,0,0,56.354,15Z" transform="translate(6.26 0.709)" fill="#0377bc"/>
      <g id="Grupo_1226270" data-name="Grupo 1226270" transform="translate(20.126 14.591)">
        <rect id="Rectángulo_422428" data-name="Rectángulo 422428" width="9" height="9" rx="2" transform="translate(0.417 -0.11)" fill="#60a917"/>
        <rect id="Rectángulo_422429" data-name="Rectángulo 422429" width="9" height="8" rx="2" transform="translate(0.417 13.89)" fill="#60a917"/>
        <rect id="Rectángulo_422430" data-name="Rectángulo 422430" width="9" height="9" rx="2" transform="translate(0.417 26.89)" fill="#60a917"/>
      </g>
      <path id="Trazado_1057971" data-name="Trazado 1057971" d="M7.7,30.472l2.564-2.564a1.118,1.118,0,1,0-1.581-1.581L5.328,29.682a1.118,1.118,0,0,0,0,1.581l3.354,3.354a1.118,1.118,0,1,0,1.581-1.581Z" transform="translate(0.591 2.008)"/>
      <path id="Trazado_1057972" data-name="Trazado 1057972" d="M62.614,14.591H53.669V13.472A4.472,4.472,0,0,0,49.2,9H17.89a4.472,4.472,0,0,0-4.472,4.472v1.118H4.472A4.472,4.472,0,0,0,0,19.063V45.9A4.472,4.472,0,0,0,4.472,50.37h8.945v1.118a4.472,4.472,0,0,0,4.472,4.472H49.2a4.472,4.472,0,0,0,4.472-4.472V50.37h8.945A4.472,4.472,0,0,0,67.086,45.9V19.063A4.472,4.472,0,0,0,62.614,14.591ZM4.472,48.134A2.236,2.236,0,0,1,2.236,45.9V19.063a2.236,2.236,0,0,1,2.236-2.236h8.945V48.134Zm46.961,3.354A2.236,2.236,0,0,1,49.2,53.724H17.89a2.236,2.236,0,0,1-2.236-2.236V13.472a2.236,2.236,0,0,1,2.236-2.236H49.2a2.236,2.236,0,0,1,2.236,2.236ZM64.85,45.9a2.236,2.236,0,0,1-2.236,2.236H53.669V16.827h8.945a2.236,2.236,0,0,1,2.236,2.236Z"/>
      <path id="Trazado_1057973" data-name="Trazado 1057973" d="M51.909,26.328a1.118,1.118,0,1,0-1.581,1.581l2.564,2.564-2.564,2.564a1.118,1.118,0,1,0,1.581,1.581l3.354-3.354a1.118,1.118,0,0,0,0-1.581Z" transform="translate(5.905 2.008)"/>
      <path id="Trazado_1057974" data-name="Trazado 1057974" d="M28.6,13.245l-1.212.969A3.335,3.335,0,0,0,24.827,13H20.354A3.354,3.354,0,0,0,17,16.354v4.472a3.354,3.354,0,0,0,3.354,3.354h4.472a3.354,3.354,0,0,0,3.354-3.354V16.445L30,14.991a1.118,1.118,0,0,0-1.4-1.746Zm-2.656,7.582a1.118,1.118,0,0,1-1.118,1.118H20.354a1.118,1.118,0,0,1-1.118-1.118V16.354a1.118,1.118,0,0,1,1.118-1.118h4.472a1.1,1.1,0,0,1,.82.372l-1.855,1.484-.41-.41A1.118,1.118,0,1,0,21.8,18.263l1.118,1.118a1.118,1.118,0,0,0,1.489.083l1.537-1.23Z" transform="translate(2.008 0.472)"/>
      <path id="Trazado_1057975" data-name="Trazado 1057975" d="M28.6,25.245l-1.212.969A3.335,3.335,0,0,0,24.827,25H20.354A3.354,3.354,0,0,0,17,28.354v4.472a3.354,3.354,0,0,0,3.354,3.354h4.472a3.354,3.354,0,0,0,3.354-3.354V28.445L30,26.991a1.118,1.118,0,0,0-1.4-1.746Zm-2.656,7.582a1.118,1.118,0,0,1-1.118,1.118H20.354a1.118,1.118,0,0,1-1.118-1.118V28.354a1.118,1.118,0,0,1,1.118-1.118h4.472a1.1,1.1,0,0,1,.82.372l-1.855,1.484-.41-.41A1.118,1.118,0,1,0,21.8,30.263l1.118,1.118a1.118,1.118,0,0,0,1.489.083l1.537-1.23Z" transform="translate(2.008 1.89)"/>
      <path id="Trazado_1057976" data-name="Trazado 1057976" d="M28.6,37.245l-1.212.969A3.335,3.335,0,0,0,24.827,37H20.354A3.354,3.354,0,0,0,17,40.354v4.472a3.354,3.354,0,0,0,3.354,3.354h4.472a3.354,3.354,0,0,0,3.354-3.354V40.445L30,38.991a1.118,1.118,0,0,0-1.4-1.746Zm-2.656,7.582a1.118,1.118,0,0,1-1.118,1.118H20.354a1.118,1.118,0,0,1-1.118-1.118V40.354a1.118,1.118,0,0,1,1.118-1.118h4.472a1.1,1.1,0,0,1,.82.372l-1.855,1.484-.41-.41A1.118,1.118,0,1,0,21.8,42.263l1.118,1.118a1.118,1.118,0,0,0,1.489.083l1.537-1.23Z" transform="translate(2.008 3.307)"/>
      <path id="Trazado_1057977" data-name="Trazado 1057977" d="M43.3,15H32.118a1.118,1.118,0,0,0,0,2.236H43.3A1.118,1.118,0,1,0,43.3,15Z" transform="translate(3.661 0.709)"/>
      <path id="Trazado_1057978" data-name="Trazado 1057978" d="M32.118,21.236h6.709a1.118,1.118,0,1,0,0-2.236H32.118a1.118,1.118,0,0,0,0,2.236Z" transform="translate(3.661 1.181)"/>
      <path id="Trazado_1057979" data-name="Trazado 1057979" d="M43.3,27H32.118a1.118,1.118,0,0,0,0,2.236H43.3A1.118,1.118,0,0,0,43.3,27Z" transform="translate(3.661 2.126)"/>
      <path id="Trazado_1057980" data-name="Trazado 1057980" d="M32.118,33.236h6.709a1.118,1.118,0,1,0,0-2.236H32.118a1.118,1.118,0,0,0,0,2.236Z" transform="translate(3.661 2.598)"/>
      <path id="Trazado_1057981" data-name="Trazado 1057981" d="M43.3,39H32.118a1.118,1.118,0,0,0,0,2.236H43.3A1.118,1.118,0,1,0,43.3,39Z" transform="translate(3.661 3.543)"/>
      <path id="Trazado_1057982" data-name="Trazado 1057982" d="M38.827,43H32.118a1.118,1.118,0,0,0,0,2.236h6.709a1.118,1.118,0,1,0,0-2.236Z" transform="translate(3.661 4.016)"/>
    </g>
  </g>
</svg>
