<svg xmlns="http://www.w3.org/2000/svg" xmlns:xlink="http://www.w3.org/1999/xlink" width="113" height="113" viewBox="0 0 113 113">
  <defs>
    <filter id="Trazado_982547" x="0" y="0" width="113" height="113" filterUnits="userSpaceOnUse">
      <feOffset dy="3" input="SourceAlpha"/>
      <feGaussianBlur stdDeviation="3" result="blur"/>
      <feFlood flood-opacity="0.161"/>
      <feComposite operator="in" in2="blur"/>
      <feComposite in="SourceGraphic"/>
    </filter>
  </defs>
  <g id="Grupo_1226272" data-name="Grupo 1226272" transform="translate(-744.156 -2260.296)">
    <g id="Grupo_1226085" data-name="Grupo 1226085" transform="translate(753.156 2266.296)">
      <g id="Grupo_1225173" data-name="Grupo 1225173">
        <g id="Grupo_1224643" data-name="Grupo 1224643">
          <g id="Grupo_1224291" data-name="Grupo 1224291">
            <g id="Grupo_1224091" data-name="Grupo 1224091">
              <g id="Grupo_1223183" data-name="Grupo 1223183" transform="translate(0)">
                <g id="Grupo_1211217" data-name="Grupo 1211217">
                  <g id="Grupo_1210736" data-name="Grupo 1210736">
                    <g id="Grupo_1210537" data-name="Grupo 1210537">
                      <g id="Grupo_1164202" data-name="Grupo 1164202">
                        <g id="Grupo_1158168" data-name="Grupo 1158168">
                          <g id="Grupo_1152576" data-name="Grupo 1152576">
                            <g id="Grupo_1148633" data-name="Grupo 1148633">
                              <g id="Grupo_1148525" data-name="Grupo 1148525">
                                <g transform="matrix(1, 0, 0, 1, -9, -6)" filter="url(#Trazado_982547)">
                                  <g id="Trazado_982547-2" data-name="Trazado 982547" transform="translate(9 6)" fill="#fdf6e4">
                                    <path d="M 47.49999618530273 93.5 C 41.28936767578125 93.5 35.26533126831055 92.28396606445312 29.59518241882324 89.88570404052734 C 24.11771583557129 87.56893157958984 19.19812965393066 84.251953125 14.97308921813965 80.02690124511719 C 10.74803638458252 75.80186462402344 7.431062698364258 70.88227844238281 5.114289283752441 65.40480804443359 C 2.716022968292236 59.73466110229492 1.499996185302734 53.71062469482422 1.499996185302734 47.49999618530273 C 1.499996185302734 41.28936767578125 2.716022968292236 35.26533126831055 5.114289283752441 29.59518241882324 C 7.431062698364258 24.11771583557129 10.74803638458252 19.19812965393066 14.97308921813965 14.97308921813965 C 19.19812965393066 10.74803638458252 24.11771583557129 7.431062698364258 29.59518241882324 5.114289283752441 C 35.26533126831055 2.716022968292236 41.28936767578125 1.499996185302734 47.49999618530273 1.499996185302734 C 53.71062469482422 1.499996185302734 59.73466110229492 2.716022968292236 65.40480804443359 5.114289283752441 C 70.88227844238281 7.431062698364258 75.80186462402344 10.74803638458252 80.02690124511719 14.97308921813965 C 84.251953125 19.19812965393066 87.56893157958984 24.11771583557129 89.88570404052734 29.59518241882324 C 92.28396606445312 35.26533126831055 93.5 41.28936767578125 93.5 47.49999618530273 C 93.5 53.71062469482422 92.28396606445312 59.73466110229492 89.88570404052734 65.40480804443359 C 87.56893157958984 70.88227844238281 84.251953125 75.80186462402344 80.02690124511719 80.02690124511719 C 75.80186462402344 84.251953125 70.88227844238281 87.56893157958984 65.40480804443359 89.88570404052734 C 59.73466110229492 92.28396606445312 53.71062469482422 93.5 47.49999618530273 93.5 Z" stroke="none"/>
                                    <path d="M 47.49999618530273 2.999992370605469 C 41.4912109375 2.999992370605469 35.66376495361328 4.1761474609375 30.17950439453125 6.495796203613281 C 24.88084411621094 8.736953735351562 20.12152099609375 11.94598388671875 16.03375244140625 16.03375244140625 C 11.94598388671875 20.12152099609375 8.736953735351562 24.88084411621094 6.495796203613281 30.17950439453125 C 4.1761474609375 35.66376495361328 2.999992370605469 41.4912109375 2.999992370605469 47.49999618530273 C 2.999992370605469 53.50878143310547 4.1761474609375 59.33622741699219 6.495796203613281 64.82048797607422 C 8.736953735351562 70.11914825439453 11.94598388671875 74.87847137451172 16.03375244140625 78.96623992919922 C 20.12152099609375 83.05400848388672 24.88084411621094 86.26304626464844 30.17950439453125 88.50419616699219 C 35.66376495361328 90.82384490966797 41.4912109375 92 47.49999618530273 92 C 53.50878143310547 92 59.33622741699219 90.82384490966797 64.82048797607422 88.50419616699219 C 70.11914825439453 86.26304626464844 74.87847137451172 83.05400848388672 78.96623992919922 78.96623992919922 C 83.05400848388672 74.87847137451172 86.26304626464844 70.11914825439453 88.50419616699219 64.82048797607422 C 90.82384490966797 59.33622741699219 92 53.50878143310547 92 47.49999618530273 C 92 41.4912109375 90.82384490966797 35.66376495361328 88.50419616699219 30.17950439453125 C 86.26304626464844 24.88084411621094 83.05400848388672 20.12152099609375 78.96623992919922 16.03375244140625 C 74.87847137451172 11.94598388671875 70.11914825439453 8.736953735351562 64.82048797607422 6.495796203613281 C 59.33622741699219 4.1761474609375 53.50878143310547 2.999992370605469 47.49999618530273 2.999992370605469 M 47.49999618530273 -7.62939453125e-06 C 73.7335205078125 -7.62939453125e-06 95 21.26647186279297 95 47.49999618530273 C 95 73.7335205078125 73.7335205078125 95 47.49999618530273 95 C 21.26647186279297 95 -7.62939453125e-06 73.7335205078125 -7.62939453125e-06 47.49999618530273 C -7.62939453125e-06 21.26647186279297 21.26647186279297 -7.62939453125e-06 47.49999618530273 -7.62939453125e-06 Z" stroke="none" fill="#f5b104"/>
                                  </g>
                                </g>
                              </g>
                            </g>
                          </g>
                        </g>
                      </g>
                    </g>
                  </g>
                </g>
              </g>
            </g>
          </g>
        </g>
      </g>
    </g>
    <g id="Programing" transform="translate(766.656 2282)">
      <path id="Trazado_1057983" data-name="Trazado 1057983" d="M53,3H11A2,2,0,0,0,9,5V9H55V5A2,2,0,0,0,53,3Z" fill="#004fac"/>
      <path id="Trazado_1057984" data-name="Trazado 1057984" d="M9,9V37a2,2,0,0,0,2,2H53a2,2,0,0,0,2-2V9Z" fill="#ffeb99"/>
      <path id="Trazado_1057985" data-name="Trazado 1057985" d="M52,47H12a2,2,0,0,0-2,2V59a2,2,0,0,0,2,2H52a2,2,0,0,0,2-2V49A2,2,0,0,0,52,47Z" fill="#3d9ae2"/>
      <path id="Trazado_1057986" data-name="Trazado 1057986" d="M9,11V37a2,2,0,0,0,2,2H38C20.865,39,9,28.135,9,11Z" fill="#ffde55"/>
      <path id="Trazado_1057987" data-name="Trazado 1057987" d="M10,49V59a2,2,0,0,0,2,2H24C16.262,61,10,55.633,10,49Z" fill="#2488ff"/>
      <path id="Trazado_1057988" data-name="Trazado 1057988" d="M13,50h2v2H13Z"/>
      <path id="Trazado_1057989" data-name="Trazado 1057989" d="M17,50h2v2H17Z"/>
      <path id="Trazado_1057990" data-name="Trazado 1057990" d="M21,50h2v2H21Z"/>
      <path id="Trazado_1057991" data-name="Trazado 1057991" d="M25,50h2v2H25Z"/>
      <path id="Trazado_1057992" data-name="Trazado 1057992" d="M29,50h2v2H29Z"/>
      <path id="Trazado_1057993" data-name="Trazado 1057993" d="M33,50h2v2H33Z"/>
      <path id="Trazado_1057994" data-name="Trazado 1057994" d="M37,50h2v2H37Z"/>
      <path id="Trazado_1057995" data-name="Trazado 1057995" d="M41,50h2v2H41Z"/>
      <path id="Trazado_1057996" data-name="Trazado 1057996" d="M45,50h2v2H45Z"/>
      <path id="Trazado_1057997" data-name="Trazado 1057997" d="M49,50h2v2H49Z"/>
      <path id="Trazado_1057998" data-name="Trazado 1057998" d="M13,53h2v2H13Z"/>
      <path id="Trazado_1057999" data-name="Trazado 1057999" d="M17,53h2v2H17Z"/>
      <path id="Trazado_1058000" data-name="Trazado 1058000" d="M21,53h2v2H21Z"/>
      <path id="Trazado_1058001" data-name="Trazado 1058001" d="M25,53h2v2H25Z"/>
      <path id="Trazado_1058002" data-name="Trazado 1058002" d="M29,53h2v2H29Z"/>
      <path id="Trazado_1058003" data-name="Trazado 1058003" d="M33,53h2v2H33Z"/>
      <path id="Trazado_1058004" data-name="Trazado 1058004" d="M37,53h2v2H37Z"/>
      <path id="Trazado_1058005" data-name="Trazado 1058005" d="M41,53h2v2H41Z"/>
      <path id="Trazado_1058006" data-name="Trazado 1058006" d="M45,53h2v2H45Z"/>
      <path id="Trazado_1058007" data-name="Trazado 1058007" d="M49,53h2v2H49Z"/>
      <path id="Trazado_1058008" data-name="Trazado 1058008" d="M13,56h2v2H13Z"/>
      <path id="Trazado_1058009" data-name="Trazado 1058009" d="M17,56h2v2H17Z"/>
      <path id="Trazado_1058010" data-name="Trazado 1058010" d="M21,56h2v2H21Z"/>
      <path id="Trazado_1058011" data-name="Trazado 1058011" d="M25,56H39v2H25Z"/>
      <path id="Trazado_1058012" data-name="Trazado 1058012" d="M41,56h2v2H41Z"/>
      <path id="Trazado_1058013" data-name="Trazado 1058013" d="M45,56h2v2H45Z"/>
      <path id="Trazado_1058014" data-name="Trazado 1058014" d="M49,56h2v2H49Z"/>
      <path id="Trazado_1058015" data-name="Trazado 1058015" d="M12,5h2V7H12Z"/>
      <path id="Trazado_1058016" data-name="Trazado 1058016" d="M16,5h2V7H16Z"/>
      <path id="Trazado_1058017" data-name="Trazado 1058017" d="M20,5h2V7H20Z"/>
      <path id="Trazado_1058018" data-name="Trazado 1058018" d="M15,15a1,1,0,0,0-1,1V35a1,1,0,0,0,2,0V16A1,1,0,0,0,15,15Z"/>
      <path id="Trazado_1058019" data-name="Trazado 1058019" d="M22,19a1,1,0,0,0,.556-1.832L20.8,16l1.752-1.168a1,1,0,1,0-1.11-1.664l-3,2a1,1,0,0,0,0,1.664l3,2A1,1,0,0,0,22,19Z"/>
      <path id="Trazado_1058020" data-name="Trazado 1058020" d="M29.168,18.555a1,1,0,0,0,1.387.277l3-2a1,1,0,0,0,0-1.664l-3-2a1,1,0,1,0-1.11,1.664L31.2,16l-1.752,1.168a1,1,0,0,0-.28,1.387Z"/>
      <path id="Trazado_1058021" data-name="Trazado 1058021" d="M24.684,19.949a1,1,0,0,0,1.264-.633l2-6a1,1,0,1,0-1.9-.632l-2,6a1,1,0,0,0,.636,1.265Z"/>
      <path id="Trazado_1058022" data-name="Trazado 1058022" d="M19,22h6v2H19Z"/>
      <path id="Trazado_1058023" data-name="Trazado 1058023" d="M27,22h2v2H27Z"/>
      <path id="Trazado_1058024" data-name="Trazado 1058024" d="M23,26H35v2H23Z"/>
      <path id="Trazado_1058025" data-name="Trazado 1058025" d="M41,26h9v2H41Z"/>
      <path id="Trazado_1058026" data-name="Trazado 1058026" d="M23,30h2v2H23Z"/>
      <path id="Trazado_1058027" data-name="Trazado 1058027" d="M27,30H39v2H27Z"/>
      <path id="Trazado_1058028" data-name="Trazado 1058028" d="M41,30h4v2H41Z"/>
      <path id="Trazado_1058029" data-name="Trazado 1058029" d="M19,34h6v2H19Z"/>
      <path id="Trazado_1058030" data-name="Trazado 1058030" d="M27,34h2v2H27Z"/>
      <path id="Trazado_1058031" data-name="Trazado 1058031" d="M37,26h2v2H37Z"/>
      <path id="Trazado_1058032" data-name="Trazado 1058032" d="M59,19H56V5a3,3,0,0,0-3-3H11A3,3,0,0,0,8,5V37a3,3,0,0,0,3,3H53a3,3,0,0,0,3-3V21h3a1,1,0,0,1,1,1V41a1,1,0,0,1-1,1H20a3.548,3.548,0,0,0-2.469.575A1.926,1.926,0,0,0,17,44v2H12a3,3,0,0,0-3,3V59a3,3,0,0,0,3,3H52a3,3,0,0,0,3-3V49a3,3,0,0,0-3-3H19V44c.188-.022,40,0,40,0a3,3,0,0,0,3-3V22a3,3,0,0,0-3-3ZM11,4H53a1,1,0,0,1,1,1V8H10V5A1,1,0,0,1,11,4ZM53,38H11a1,1,0,0,1-1-1V10H54V37A1,1,0,0,1,53,38Zm0,11V59a1,1,0,0,1-1,1H12a1,1,0,0,1-1-1V49a1,1,0,0,1,1-1H52A1,1,0,0,1,53,49Z"/>
    </g>
  </g>
</svg>
