<svg xmlns="http://www.w3.org/2000/svg" xmlns:xlink="http://www.w3.org/1999/xlink" width="113" height="113" viewBox="0 0 113 113">
  <defs>
    <filter id="Trazado_982547" x="0" y="0" width="113" height="113" filterUnits="userSpaceOnUse">
      <feOffset dy="3" input="SourceAlpha"/>
      <feGaussianBlur stdDeviation="3" result="blur"/>
      <feFlood flood-opacity="0.161"/>
      <feComposite operator="in" in2="blur"/>
      <feComposite in="SourceGraphic"/>
    </filter>
  </defs>
  <g id="Grupo_1226274" data-name="Grupo 1226274" transform="translate(-1164.156 -2260.296)">
    <g id="Grupo_1226086" data-name="Grupo 1226086" transform="translate(1173.156 2266.296)">
      <g id="Grupo_1225173" data-name="Grupo 1225173">
        <g id="Grupo_1224643" data-name="Grupo 1224643">
          <g id="Grupo_1224291" data-name="Grupo 1224291">
            <g id="Grupo_1224091" data-name="Grupo 1224091">
              <g id="Grupo_1223183" data-name="Grupo 1223183" transform="translate(0)">
                <g id="Grupo_1211217" data-name="Grupo 1211217">
                  <g id="Grupo_1210736" data-name="Grupo 1210736">
                    <g id="Grupo_1210537" data-name="Grupo 1210537">
                      <g id="Grupo_1164202" data-name="Grupo 1164202">
                        <g id="Grupo_1158168" data-name="Grupo 1158168">
                          <g id="Grupo_1152576" data-name="Grupo 1152576">
                            <g id="Grupo_1148633" data-name="Grupo 1148633">
                              <g id="Grupo_1148525" data-name="Grupo 1148525">
                                <g transform="matrix(1, 0, 0, 1, -9, -6)" filter="url(#Trazado_982547)">
                                  <g id="Trazado_982547-2" data-name="Trazado 982547" transform="translate(9 6)" fill="#fdf6e4">
                                    <path d="M 47.49999618530273 93.5 C 41.28936767578125 93.5 35.26533126831055 92.28396606445312 29.59518241882324 89.88570404052734 C 24.11771583557129 87.56893157958984 19.19812965393066 84.251953125 14.97308921813965 80.02690124511719 C 10.74803638458252 75.80186462402344 7.431062698364258 70.88227844238281 5.114289283752441 65.40480804443359 C 2.716022968292236 59.73466110229492 1.499996185302734 53.71062469482422 1.499996185302734 47.49999618530273 C 1.499996185302734 41.28936767578125 2.716022968292236 35.26533126831055 5.114289283752441 29.59518241882324 C 7.431062698364258 24.11771583557129 10.74803638458252 19.19812965393066 14.97308921813965 14.97308921813965 C 19.19812965393066 10.74803638458252 24.11771583557129 7.431062698364258 29.59518241882324 5.114289283752441 C 35.26533126831055 2.716022968292236 41.28936767578125 1.499996185302734 47.49999618530273 1.499996185302734 C 53.71062469482422 1.499996185302734 59.73466110229492 2.716022968292236 65.40480804443359 5.114289283752441 C 70.88227844238281 7.431062698364258 75.80186462402344 10.74803638458252 80.02690124511719 14.97308921813965 C 84.251953125 19.19812965393066 87.56893157958984 24.11771583557129 89.88570404052734 29.59518241882324 C 92.28396606445312 35.26533126831055 93.5 41.28936767578125 93.5 47.49999618530273 C 93.5 53.71062469482422 92.28396606445312 59.73466110229492 89.88570404052734 65.40480804443359 C 87.56893157958984 70.88227844238281 84.251953125 75.80186462402344 80.02690124511719 80.02690124511719 C 75.80186462402344 84.251953125 70.88227844238281 87.56893157958984 65.40480804443359 89.88570404052734 C 59.73466110229492 92.28396606445312 53.71062469482422 93.5 47.49999618530273 93.5 Z" stroke="none"/>
                                    <path d="M 47.49999618530273 2.999992370605469 C 41.4912109375 2.999992370605469 35.66376495361328 4.1761474609375 30.17950439453125 6.495796203613281 C 24.88084411621094 8.736953735351562 20.12152099609375 11.94598388671875 16.03375244140625 16.03375244140625 C 11.94598388671875 20.12152099609375 8.736953735351562 24.88084411621094 6.495796203613281 30.17950439453125 C 4.1761474609375 35.66376495361328 2.999992370605469 41.4912109375 2.999992370605469 47.49999618530273 C 2.999992370605469 53.50878143310547 4.1761474609375 59.33622741699219 6.495796203613281 64.82048797607422 C 8.736953735351562 70.11914825439453 11.94598388671875 74.87847137451172 16.03375244140625 78.96623992919922 C 20.12152099609375 83.05400848388672 24.88084411621094 86.26304626464844 30.17950439453125 88.50419616699219 C 35.66376495361328 90.82384490966797 41.4912109375 92 47.49999618530273 92 C 53.50878143310547 92 59.33622741699219 90.82384490966797 64.82048797607422 88.50419616699219 C 70.11914825439453 86.26304626464844 74.87847137451172 83.05400848388672 78.96623992919922 78.96623992919922 C 83.05400848388672 74.87847137451172 86.26304626464844 70.11914825439453 88.50419616699219 64.82048797607422 C 90.82384490966797 59.33622741699219 92 53.50878143310547 92 47.49999618530273 C 92 41.4912109375 90.82384490966797 35.66376495361328 88.50419616699219 30.17950439453125 C 86.26304626464844 24.88084411621094 83.05400848388672 20.12152099609375 78.96623992919922 16.03375244140625 C 74.87847137451172 11.94598388671875 70.11914825439453 8.736953735351562 64.82048797607422 6.495796203613281 C 59.33622741699219 4.1761474609375 53.50878143310547 2.999992370605469 47.49999618530273 2.999992370605469 M 47.49999618530273 -7.62939453125e-06 C 73.7335205078125 -7.62939453125e-06 95 21.26647186279297 95 47.49999618530273 C 95 73.7335205078125 73.7335205078125 95 47.49999618530273 95 C 21.26647186279297 95 -7.62939453125e-06 73.7335205078125 -7.62939453125e-06 47.49999618530273 C -7.62939453125e-06 21.26647186279297 21.26647186279297 -7.62939453125e-06 47.49999618530273 -7.62939453125e-06 Z" stroke="none" fill="#f5b104"/>
                                  </g>
                                </g>
                              </g>
                            </g>
                          </g>
                        </g>
                      </g>
                    </g>
                  </g>
                </g>
              </g>
            </g>
          </g>
        </g>
      </g>
    </g>
    <g id="App_development" data-name="App development" transform="translate(1188.656 2279.797)">
      <circle id="Elipse_12617" data-name="Elipse 12617" cx="12" cy="12" r="12" transform="translate(20 3)" fill="#d80027"/>
      <path id="Trazado_1058033" data-name="Trazado 1058033" d="M40,17H36.83l2.24,2.24-2.83,2.83L34,19.83V23H30V19.83l-2.24,2.24-2.83-2.83L27.17,17H24V13h3.17l-2.24-2.24,2.83-2.83L30,10.17V7h4v3.17l2.24-2.24,2.83,2.83L36.83,13H40Z" fill="#ffcd00"/>
      <path id="Trazado_1058034" data-name="Trazado 1058034" d="M43,37H61V55H43Z" fill="#ffc477"/>
      <path id="Trazado_1058035" data-name="Trazado 1058035" d="M43,57a4,4,0,0,0,4,4H57a4,4,0,0,0,4-4V55H43Z" fill="#005ece"/>
      <path id="Trazado_1058036" data-name="Trazado 1058036" d="M57,31H47a4,4,0,0,0-4,4v2H61V35A4,4,0,0,0,57,31Z" fill="#005ece"/>
      <path id="Trazado_1058037" data-name="Trazado 1058037" d="M7,61H35a4,4,0,0,0,4-4V55H3v2A4,4,0,0,0,7,61Z" fill="#1a6fb0"/>
      <path id="Trazado_1058038" data-name="Trazado 1058038" d="M37,33V55H5V33a2.006,2.006,0,0,1,2-2H35A2.006,2.006,0,0,1,37,33Z" fill="#1e81ce"/>
      <path id="Trazado_1058039" data-name="Trazado 1058039" d="M9,35H33V51H9Z" fill="#ffdaaa"/>
      <path id="Trazado_1058040" data-name="Trazado 1058040" d="M17,56a2,2,0,0,0,2,2h4a2,2,0,0,0,2-2V55H17Z" fill="#ffcd00"/>
      <circle id="Elipse_12618" data-name="Elipse 12618" cx="2" cy="2" r="2" transform="translate(30 13)" fill="#f1f2f2"/>
      <path id="Trazado_1058041" data-name="Trazado 1058041" d="M43,55H61V37C61,47.5,54.607,55,43,55Z" fill="#ffb655"/>
      <path id="Trazado_1058042" data-name="Trazado 1058042" d="M9,51H33V35C33,43.844,22.266,51,9,51Z" fill="#ffc477"/>
      <g id="Grupo_1226273" data-name="Grupo 1226273">
        <path id="Trazado_1058043" data-name="Trazado 1058043" d="M57,30H53V17a3,3,0,0,0-3-3H44.949a12.987,12.987,0,0,0-25.9.01c-.017,0-.032-.01-.05-.01H13a3,3,0,0,0-3,3V30H7a3,3,0,0,0-3,3V54H3a1,1,0,0,0-1,1v2a5.006,5.006,0,0,0,5,5H35a5.006,5.006,0,0,0,5-5V55a1,1,0,0,0-1-1H38V33a3,3,0,0,0-3-3H12V17a1,1,0,0,1,1-1h6c.018,0,.033-.009.05-.01a12.987,12.987,0,0,0,25.9.01H50a1,1,0,0,1,1,1V30H47a5.006,5.006,0,0,0-5,5V57a5.006,5.006,0,0,0,5,5H57a5.006,5.006,0,0,0,5-5V35a5.006,5.006,0,0,0-5-5ZM38,57a3,3,0,0,1-3,3H7a3,3,0,0,1-3-3V56H16a3,3,0,0,0,3,3h4a3,3,0,0,0,3-3H38ZM18,56h6a1,1,0,0,1-1,1H19A1,1,0,0,1,18,56ZM35,32a1,1,0,0,1,1,1V54H6V33a1,1,0,0,1,1-1Zm-3-6A11,11,0,1,1,43,15,11,11,0,0,1,32,26ZM44,38H60V54H44Zm3-6H57a3,3,0,0,1,3,3v1H44V35A3,3,0,0,1,47,32ZM57,60H47a3,3,0,0,1-3-3V56H60v1A3,3,0,0,1,57,60Z" fill="#231f20"/>
        <path id="Trazado_1058044" data-name="Trazado 1058044" d="M53,57H51a1,1,0,0,0,0,2h2a1,1,0,0,0,0-2Z" fill="#231f20"/>
        <path id="Trazado_1058045" data-name="Trazado 1058045" d="M9,52H33a1,1,0,0,0,1-1V35a1,1,0,0,0-1-1H9a1,1,0,0,0-1,1V51A1,1,0,0,0,9,52Zm1-16H32V50H10Z" fill="#231f20"/>
        <path id="Trazado_1058046" data-name="Trazado 1058046" d="M51,35h2a1,1,0,0,0,0-2H51a1,1,0,0,0,0,2Z" fill="#231f20"/>
        <path id="Trazado_1058047" data-name="Trazado 1058047" d="M35.533,7.223,35,7.756V7a1,1,0,0,0-1-1H30a1,1,0,0,0-1,1v.756l-.533-.533a1,1,0,0,0-1.414,0l-2.83,2.83a1,1,0,0,0,0,1.414l.533.533H24a1,1,0,0,0-1,1v4a1,1,0,0,0,1,1h.756l-.533.533a1,1,0,0,0,0,1.414l2.83,2.83a1,1,0,0,0,1.414,0L29,22.244V23a1,1,0,0,0,1,1h4a1,1,0,0,0,1-1v-.756l.533.533a1,1,0,0,0,1.414,0l2.83-2.83a1,1,0,0,0,0-1.414L39.244,18H40a1,1,0,0,0,1-1V13a1,1,0,0,0-1-1h-.756l.533-.533a1,1,0,0,0,0-1.414l-2.83-2.83a1,1,0,0,0-1.414,0Zm.373,6.16A1,1,0,0,0,36.83,14H39v2H36.83a1,1,0,0,0-.707,1.707l1.533,1.533L36.24,20.656l-1.533-1.533A1,1,0,0,0,33,19.83V22H31V19.83a1,1,0,0,0-1.707-.707L27.76,20.656,26.344,19.24l1.533-1.533A1,1,0,0,0,27.17,16H25V14h2.17a1,1,0,0,0,.707-1.707L26.344,10.76,27.76,9.344l1.533,1.533A1,1,0,0,0,31,10.17V8h2v2.17a1,1,0,0,0,1.707.707L36.24,9.344l1.416,1.416-1.533,1.533a1,1,0,0,0-.217,1.09Z" fill="#231f20"/>
        <path id="Trazado_1058048" data-name="Trazado 1058048" d="M32,12a3,3,0,1,0,3,3A3,3,0,0,0,32,12Zm0,4a1,1,0,1,1,1-1A1,1,0,0,1,32,16Z" fill="#231f20"/>
        <path id="Trazado_1058049" data-name="Trazado 1058049" d="M48,40H47a1,1,0,0,0,0,2h1a1,1,0,0,0,0-2Z" fill="#231f20"/>
        <path id="Trazado_1058050" data-name="Trazado 1058050" d="M51,42h6a1,1,0,0,0,0-2H51a1,1,0,0,0,0,2Z" fill="#231f20"/>
        <path id="Trazado_1058051" data-name="Trazado 1058051" d="M48,44H47a1,1,0,0,0,0,2h1a1,1,0,0,0,0-2Z" fill="#231f20"/>
        <path id="Trazado_1058052" data-name="Trazado 1058052" d="M57,44H51a1,1,0,0,0,0,2h6a1,1,0,0,0,0-2Z" fill="#231f20"/>
        <path id="Trazado_1058053" data-name="Trazado 1058053" d="M48,48H47a1,1,0,0,0,0,2h1a1,1,0,0,0,0-2Z" fill="#231f20"/>
        <path id="Trazado_1058054" data-name="Trazado 1058054" d="M57,48H51a1,1,0,0,0,0,2h6a1,1,0,0,0,0-2Z" fill="#231f20"/>
        <path id="Trazado_1058055" data-name="Trazado 1058055" d="M16,38H15a1,1,0,0,0,0,2h1a1,1,0,0,0,0-2Z" fill="#231f20"/>
        <path id="Trazado_1058056" data-name="Trazado 1058056" d="M26,38H19a1,1,0,0,0,0,2h7a1,1,0,0,0,0-2Z" fill="#231f20"/>
        <path id="Trazado_1058057" data-name="Trazado 1058057" d="M16,42H15a1,1,0,0,0,0,2h1a1,1,0,0,0,0-2Z" fill="#231f20"/>
        <path id="Trazado_1058058" data-name="Trazado 1058058" d="M26,42H19a1,1,0,0,0,0,2h7a1,1,0,0,0,0-2Z" fill="#231f20"/>
        <path id="Trazado_1058059" data-name="Trazado 1058059" d="M16,46H15a1,1,0,0,0,0,2h1a1,1,0,0,0,0-2Z" fill="#231f20"/>
        <path id="Trazado_1058060" data-name="Trazado 1058060" d="M26,46H19a1,1,0,0,0,0,2h7a1,1,0,0,0,0-2Z" fill="#231f20"/>
      </g>
    </g>
  </g>
</svg>
