<svg xmlns="http://www.w3.org/2000/svg" width="400" height="130" viewBox="0 0 400 130">
  <g id="Grupo_1226281" data-name="Grupo 1226281" transform="translate(-1020.313 -5530)">
    <g id="Grupo_1225647" data-name="Grupo 1225647" transform="translate(0.313 -6647.413)">
      <g id="Grupo_1225644" data-name="Grupo 1225644" transform="translate(1020 12197)">
        <rect id="equipo-de-desarrolladores-haciendo-una-tormenta-de-ideas-para-optimizar-el-codigo" width="400" height="60" rx="3" transform="translate(0 15.413)" fill="#3b2a76"/>
        <rect id="equipo-de-desarrolladores-haciendo-una-tormenta-de-ideas-para-optimizar-el-codigo-2" data-name="equipo-de-desarrolladores-haciendo-una-tormenta-de-ideas-para-optimizar-el-codigo" width="354" height="90" rx="3" transform="translate(23 0.413)" fill="#00dcfd"/>
      </g>
    </g>
    <g id="internet-things_18517552" transform="translate(1154.313 5528.998)">
      <g id="Grupo_1226280" data-name="Grupo 1226280" transform="translate(2.912 2.914)">
        <g id="Grupo_1226278" data-name="Grupo 1226278" transform="translate(0 0)">
          <path id="Trazado_1058153" data-name="Trazado 1058153" d="M76.12,149.031a8.46,8.46,0,1,1,8.46,8.46A8.459,8.459,0,0,1,76.12,149.031Zm0-90.1a8.46,8.46,0,1,1,8.46,8.46A8.459,8.459,0,0,1,76.12,58.931Zm-50.185,43.93a8.46,8.46,0,1,1,8.46,8.46A8.459,8.459,0,0,1,25.935,102.861Zm96.354,0a8.46,8.46,0,1,1,8.46,8.46A8.459,8.459,0,0,1,122.289,102.862Z" transform="translate(-21.491 -39.773)" fill="#58d561" fill-rule="evenodd"/>
          <path id="Trazado_1058154" data-name="Trazado 1058154" d="M101.313,140.605c.252-.023.508-.035.766-.035a8.46,8.46,0,0,1,6.752,13.556c-.252.023-.508.035-.765.035a8.46,8.46,0,0,1-6.753-13.556Zm-1.707-85a8.422,8.422,0,0,1,1.707-5.1c.252-.023.508-.035.766-.035a8.46,8.46,0,0,1,6.752,13.556c-.252.023-.507.035-.765.035a8.46,8.46,0,0,1-8.46-8.46ZM49.421,99.532a8.424,8.424,0,0,1,1.707-5.1c.252-.023.508-.035.766-.035a8.46,8.46,0,0,1,6.752,13.556c-.252.023-.508.035-.765.035A8.459,8.459,0,0,1,49.421,99.532Zm96.354,0a8.422,8.422,0,0,1,1.707-5.1c.252-.023.508-.035.766-.035A8.46,8.46,0,0,1,155,107.957c-.252.023-.507.035-.765.035a8.46,8.46,0,0,1-8.46-8.46Z" transform="translate(-38.99 -39.773)" fill="#6ce75a" fill-rule="evenodd"/>
          <path id="Trazado_1058155" data-name="Trazado 1058155" d="M8.5,120.656a14.022,14.022,0,1,1,14.021,14.022A14.022,14.022,0,0,1,8.5,120.656Zm9.915-88.219A14.022,14.022,0,1,1,32.436,46.459,14.021,14.021,0,0,1,18.415,32.437Zm88.218-9.914a14.022,14.022,0,1,1,14.021,14.022A14.021,14.021,0,0,1,106.634,22.522Zm-9.915,88.219a14.022,14.022,0,1,1,14.021,14.022,14.022,14.022,0,0,1-14.021-14.022Z" transform="translate(-8.5 -8.501)" fill="#eb4e5c" fill-rule="evenodd"/>
          <path id="Trazado_1058156" data-name="Trazado 1058156" d="M42.79,107.321A14.028,14.028,0,0,1,59.9,126.466,14.028,14.028,0,0,1,42.79,107.321Zm8.658-82.409a13.97,13.97,0,0,1,1.257-5.81A14.028,14.028,0,0,1,69.814,38.247,14.029,14.029,0,0,1,51.448,24.913ZM139.667,15a13.97,13.97,0,0,1,1.257-5.81,14.028,14.028,0,0,1,17.109,19.145A14.029,14.029,0,0,1,139.667,15Zm-9.915,88.219a13.97,13.97,0,0,1,1.257-5.81,14.028,14.028,0,0,1,17.109,19.145,14.029,14.029,0,0,1-18.366-13.335Z" transform="translate(-33.113 -8.501)" fill="#ff6372" fill-rule="evenodd"/>
        </g>
        <g id="Grupo_1226279" data-name="Grupo 1226279" transform="translate(36.492 36.492)">
          <circle id="Elipse_12625" data-name="Elipse 12625" cx="26.597" cy="26.597" r="26.597" transform="translate(0 0)" fill="#ffc328"/>
          <path id="Trazado_1058157" data-name="Trazado 1058157" d="M232.253,151.661a26.606,26.606,0,0,1,23.7,38.677,26.607,26.607,0,0,1-28.929-38.162,26.7,26.7,0,0,1,5.228-.515Z" transform="translate(-205.656 -151.661)" fill="#ffd54f" fill-rule="evenodd"/>
          <path id="Trazado_1058158" data-name="Trazado 1058158" d="M195.688,219.271a4.66,4.66,0,1,1-3.295,1.365A4.644,4.644,0,0,1,195.688,219.271Zm19.623-16.316a1.9,1.9,0,1,1-3.286,1.927,19.037,19.037,0,0,0-6.946-6.856,18.974,18.974,0,0,0-18.782,0,19.036,19.036,0,0,0-6.946,6.856,1.9,1.9,0,0,1-3.286-1.927,22.746,22.746,0,0,1,39.246,0Zm-13.169,10.791a1.908,1.908,0,0,1-3.122,2.2,4.087,4.087,0,0,0-6.852.284,1.9,1.9,0,0,1-3.286-1.927,7.892,7.892,0,0,1,13.259-.553Zm6.76-5.119a15.314,15.314,0,0,0-26.428,0,1.9,1.9,0,1,0,3.286,1.927,11.57,11.57,0,0,1,4.223-4.165,11.532,11.532,0,0,1,11.411,0,11.572,11.572,0,0,1,4.223,4.165,1.9,1.9,0,1,0,3.286-1.927Zm-12.623,14.712a.836.836,0,1,0,.245.591A.833.833,0,0,0,196.279,223.339Z" transform="translate(-169.649 -181.505)" fill="#ffb700" fill-rule="evenodd"/>
          <path id="Trazado_1058159" data-name="Trazado 1058159" d="M236.769,216.744a26.735,26.735,0,0,1-6.9-6.136,7.905,7.905,0,0,1,8.278,3.138,1.908,1.908,0,0,1-1.38,3ZM226.9,205.923a11.522,11.522,0,0,1,14.728,4.631,1.9,1.9,0,1,0,3.286-1.927,15.323,15.323,0,0,0-19.463-6.242A26.466,26.466,0,0,0,226.9,205.923Zm-2.605-8.884a26.891,26.891,0,0,1-.162-2.938c0-.37.01-.738.024-1.1a22.748,22.748,0,0,1,27.165,9.959,1.9,1.9,0,1,1-3.286,1.927,19.037,19.037,0,0,0-6.946-6.856,18.994,18.994,0,0,0-16.8-.987Z" transform="translate(-205.656 -181.505)" fill="#ffc328" fill-rule="evenodd"/>
        </g>
      </g>
      <path id="Trazado_1058160" data-name="Trazado 1058160" d="M66,80.616a.836.836,0,1,1,.837-.836.836.836,0,0,1-.837.836Zm0-5.5a4.659,4.659,0,1,0,4.66,4.66A4.664,4.664,0,0,0,66,75.121ZM85.628,58.8a1.912,1.912,0,1,1-3.3,1.939,18.94,18.94,0,0,0-32.664,0,1.912,1.912,0,0,1-3.3-1.939,22.764,22.764,0,0,1,39.255,0ZM79.22,64.47a15.332,15.332,0,0,0-26.438,0,1.912,1.912,0,1,0,3.3,1.939,11.506,11.506,0,0,1,19.846,0,1.912,1.912,0,0,0,3.3-1.939Zm-6.765,5.122a1.912,1.912,0,1,1-3.124,2.2,4.076,4.076,0,0,0-6.847.285,1.912,1.912,0,0,1-3.3-1.939,7.9,7.9,0,0,1,13.266-.551ZM66,90.687A24.685,24.685,0,1,0,41.315,66,24.713,24.713,0,0,0,66,90.687Zm39.151,2.356a12.11,12.11,0,1,1-12.11,12.11A12.124,12.124,0,0,1,105.151,93.044Zm-32.6,19.127A6.548,6.548,0,1,1,66,105.624,6.554,6.554,0,0,1,72.549,112.171ZM16.933,127.178a12.11,12.11,0,1,1,12.111-12.111A12.036,12.036,0,0,1,16.933,127.178ZM26.847,38.96A12.11,12.11,0,1,1,38.96,26.849,12.025,12.025,0,0,1,26.847,38.96Zm32.6-16.889A6.548,6.548,0,1,1,66,28.619,6.505,6.505,0,0,1,59.452,22.071ZM115.067,4.825a12.108,12.108,0,1,1-12.112,12.11,12.123,12.123,0,0,1,12.112-12.11ZM107.54,61.372a6.5,6.5,0,0,1,4.629-1.918h0a6.547,6.547,0,1,1-4.631,1.918ZM15.815,72.549A6.548,6.548,0,1,1,22.364,66,6.556,6.556,0,0,1,15.815,72.549Zm71.64-25.3,17.78-17.78a15.943,15.943,0,1,0-2.7-2.7L84.751,44.547a28.39,28.39,0,0,0-16.838-6.987v-5.3a10.373,10.373,0,1,0-3.824,0v5.3a28.386,28.386,0,0,0-16.84,6.987l-7.871-7.871a15.97,15.97,0,1,0-2.7,2.7l7.871,7.872a28.377,28.377,0,0,0-6.987,16.84H26.008a10.372,10.372,0,1,0,0,3.823h11.55a28.375,28.375,0,0,0,6.987,16.84L26.758,102.539a15.969,15.969,0,1,0,2.7,2.7L47.249,87.457a28.384,28.384,0,0,0,16.84,6.987v7.533a10.375,10.375,0,1,0,3.824,0V94.444a28.381,28.381,0,0,0,16.838-6.987l7.871,7.871a15.978,15.978,0,1,0,2.705-2.7l-7.872-7.872a28.368,28.368,0,0,0,6.987-16.84h7.534A10.371,10.371,0,1,0,112.171,55.63h0a10.372,10.372,0,0,0-10.194,8.46H94.443a28.384,28.384,0,0,0-6.987-16.84Z" fill-rule="evenodd"/>
    </g>
  </g>
</svg>
