<svg xmlns="http://www.w3.org/2000/svg" xmlns:xlink="http://www.w3.org/1999/xlink" width="108" height="108" viewBox="0 0 108 108">
  <defs>
    <filter id="Trazado_904820" x="0" y="0" width="108" height="108" filterUnits="userSpaceOnUse">
      <feOffset dy="3" input="SourceAlpha"/>
      <feGaussianBlur stdDeviation="3" result="blur"/>
      <feFlood flood-opacity="0.161"/>
      <feComposite operator="in" in2="blur"/>
      <feComposite in="SourceGraphic"/>
    </filter>
  </defs>
  <g id="Grupo_1226276" data-name="Grupo 1226276" transform="translate(-199.656 -486)">
    <g id="Grupo_1174741" data-name="Grupo 1174741" transform="translate(208.656 492)">
      <g id="Grupo_1173585" data-name="Grupo 1173585" transform="translate(0 0)">
        <g id="Grupo_1173428" data-name="Grupo 1173428">
          <g id="Grupo_1171958" data-name="Grupo 1171958">
            <g id="Grupo_1167341" data-name="Grupo 1167341">
              <g id="Grupo_1166792" data-name="Grupo 1166792">
                <g transform="matrix(1, 0, 0, 1, -9, -6)" filter="url(#Trazado_904820)">
                  <g id="Trazado_904820-2" data-name="Trazado 904820" transform="translate(9 6)" fill="#ebfefd">
                    <path d="M 44.99999618530273 88.50003051757812 C 39.12687301635742 88.50003051757812 33.43022155761719 87.35010528564453 28.06829643249512 85.08219146728516 C 22.88852119445801 82.89134216308594 18.23629570007324 79.75461578369141 14.24084663391113 75.75916290283203 C 10.24540901184082 71.76371765136719 7.108683586120605 67.11148834228516 4.917821407318115 61.93171691894531 C 2.649921178817749 56.56978988647461 1.499996185302734 50.87313842773438 1.499996185302734 45.00001525878906 C 1.499996185302734 39.12689208984375 2.649921178817749 33.43024063110352 4.917821407318115 28.06830215454102 C 7.108683586120605 22.88852691650391 10.24540901184082 18.23631477355957 14.24084663391113 14.24086570739746 C 18.23629570007324 10.24541568756104 22.88852119445801 7.10869026184082 28.06829643249512 4.917827606201172 C 33.43022155761719 2.649927854537964 39.12687301635742 1.50000274181366 44.99999618530273 1.50000274181366 C 50.87311935424805 1.50000274181366 56.56977081298828 2.649927854537964 61.93169784545898 4.917827606201172 C 67.11147308349609 7.10869026184082 71.76369476318359 10.24541568756104 75.75914764404297 14.24086570739746 C 79.75458526611328 18.23631477355957 82.89131164550781 22.88852691650391 85.08216857910156 28.06830215454102 C 87.35007476806641 33.43024063110352 88.5 39.12689208984375 88.5 45.00001525878906 C 88.5 50.87313842773438 87.35007476806641 56.56978988647461 85.08216857910156 61.93171691894531 C 82.89131164550781 67.11148834228516 79.75458526611328 71.76371765136719 75.75914764404297 75.75916290283203 C 71.76369476318359 79.75461578369141 67.11147308349609 82.89134216308594 61.93169784545898 85.08219146728516 C 56.56977081298828 87.35010528564453 50.87311935424805 88.50003051757812 44.99999618530273 88.50003051757812 Z" stroke="none"/>
                    <path d="M 44.99999618530273 3 C 39.32870864868164 3 33.82865142822266 4.110061645507812 28.65262603759766 6.299346923828125 C 23.65165710449219 8.414573669433594 19.15968322753906 11.44334411621094 15.301513671875 15.301513671875 C 11.44333648681641 19.15968322753906 8.414566040039062 23.65165710449219 6.299339294433594 28.65262985229492 C 4.110054016113281 33.82867050170898 2.999992370605469 39.32872772216797 2.999992370605469 45.00001525878906 C 2.999992370605469 50.67130279541016 4.110054016113281 56.17136001586914 6.299339294433594 61.34738922119141 C 8.414566040039062 66.34837341308594 11.44333648681641 70.84033203125 15.301513671875 74.69850158691406 C 19.15968322753906 78.55668640136719 23.65165710449219 81.58545684814453 28.65262603759766 83.70068359375 C 33.82865142822266 85.88996887207031 39.32870864868164 87.00003051757812 44.99999618530273 87.00003051757812 C 50.67128372192383 87.00003051757812 56.17134094238281 85.88996887207031 61.34736633300781 83.70068359375 C 66.34834289550781 81.58545684814453 70.84030914306641 78.55668640136719 74.69847869873047 74.69850158691406 C 78.55665588378906 70.84033203125 81.58542633056641 66.34837341308594 83.70065307617188 61.34738922119141 C 85.88993835449219 56.17136001586914 87 50.67130279541016 87 45.00001525878906 C 87 39.32872772216797 85.88993835449219 33.82867050170898 83.70065307617188 28.65262985229492 C 81.58542633056641 23.65165710449219 78.55665588378906 19.15968322753906 74.69847869873047 15.301513671875 C 70.84030914306641 11.44334411621094 66.34834289550781 8.414573669433594 61.34736633300781 6.299346923828125 C 56.17134094238281 4.110061645507812 50.67128372192383 3 44.99999618530273 3 M 44.99999618530273 0 C 69.85281372070312 0 90 20.14718627929688 90 45.00001525878906 C 90 69.85282897949219 69.85281372070312 90.00003051757812 44.99999618530273 90.00003051757812 C 20.14717864990234 90.00003051757812 -7.62939453125e-06 69.85282897949219 -7.62939453125e-06 45.00001525878906 C -7.62939453125e-06 20.14718627929688 20.14717864990234 0 44.99999618530273 0 Z" stroke="none" fill="#00dcfd"/>
                  </g>
                </g>
              </g>
            </g>
          </g>
        </g>
      </g>
    </g>
    <g id="devices_18279104" transform="translate(200.129 485.409)">
      <g id="Grupo_1226275" data-name="Grupo 1226275" transform="translate(26.811 24.774)">
        <path id="Trazado_1058061" data-name="Trazado 1058061" d="M79.887,438.85v2.405a2.619,2.619,0,0,1-2.611,2.611H35.561a2.619,2.619,0,0,1-2.611-2.611V438.85a1.133,1.133,0,0,0,1.189,1.129H78.7A1.133,1.133,0,0,0,79.887,438.85Z" transform="translate(-32.95 -390.234)" fill="#033f63" fill-rule="evenodd"/>
        <path id="Trazado_1058062" data-name="Trazado 1058062" d="M70.3,81.63h33.747a2.438,2.438,0,0,1,2.433,2.429v21.6a2.436,2.436,0,0,1-2.433,2.429H70.3a2.437,2.437,0,0,1-2.433-2.429v-21.6A2.439,2.439,0,0,1,70.3,81.63Z" transform="translate(-63.708 -75.589)" fill="#1b80ab" fill-rule="evenodd"/>
        <path id="Trazado_1058063" data-name="Trazado 1058063" d="M100.44,113.46h30.848v18.871H100.44Z" transform="translate(-92.396 -103.625)" fill="#8ecae6" fill-rule="evenodd"/>
        <path id="Trazado_1058064" data-name="Trazado 1058064" d="M34.147,320.892H78.705a1.172,1.172,0,0,0,1.135-1.584l-3.692-14.074a2.189,2.189,0,0,0-1.967-1.584H38.674a2.2,2.2,0,0,0-1.97,1.584l-3.691,14.073a1.175,1.175,0,0,0,1.135,1.585Z" transform="translate(-32.958 -271.148)" fill="#1b80ab" fill-rule="evenodd"/>
        <path id="Trazado_1058065" data-name="Trazado 1058065" d="M67.73,346.85h41.6a1.172,1.172,0,0,0,1.135-1.584l-3.186-12.146h-34.4a2.19,2.19,0,0,0-1.97,1.584Z" transform="translate(-63.585 -297.105)" fill="#219ebc" fill-rule="evenodd"/>
        <path id="Trazado_1058066" data-name="Trazado 1058066" d="M153.169,378.67h14.848l1.95,8.3H151.22Z" transform="translate(-137.124 -337.226)" fill="#033f63" fill-rule="evenodd"/>
        <path id="Trazado_1058067" data-name="Trazado 1058067" d="M182.112,136.65l3.23,3.23,3.23,3.232H175.65l3.23-3.232Z" transform="translate(-158.643 -124.051)" fill="#28666e" fill-rule="evenodd"/>
        <path id="Trazado_1058068" data-name="Trazado 1058068" d="M189.62,190.87h9.592v6.882H189.62Z" transform="translate(-170.948 -171.809)" fill="#218380" fill-rule="evenodd"/>
        <path id="Trazado_1058069" data-name="Trazado 1058069" d="M316.855,30.94A10.415,10.415,0,1,1,306.44,41.355,10.415,10.415,0,0,1,316.855,30.94Z" transform="translate(-273.844 -30.94)" fill="#fb8500" fill-rule="evenodd"/>
        <path id="Trazado_1058070" data-name="Trazado 1058070" d="M356.538,46.241a10.421,10.421,0,0,1-7.482,18.818,10.418,10.418,0,0,1,6.02-18.919,10.944,10.944,0,0,1,1.462.1Z" transform="translate(-307.509 -44.328)" fill="#ffb703" fill-rule="evenodd"/>
        <path id="Trazado_1058071" data-name="Trazado 1058071" d="M381.021,147.471a1.583,1.583,0,1,1,0,2.239A1.58,1.58,0,0,1,381.021,147.471Z" transform="translate(-339.128 -133.174)" fill="#73d2de" fill-rule="evenodd"/>
      </g>
      <path id="Trazado_1058072" data-name="Trazado 1058072" d="M68.116,38.48a2.417,2.417,0,1,1,0,3.418A2.42,2.42,0,0,1,68.116,38.48Zm1.179,1.182a.748.748,0,1,0,1.057,0,.749.749,0,0,0-1.057,0Zm-1.906-1.908a.833.833,0,1,1-1.179-1.179,5.112,5.112,0,0,1,7.23,0,.833.833,0,1,1-1.179,1.179A3.447,3.447,0,0,0,67.389,37.755Zm-1.972-1.97A.835.835,0,1,1,64.238,34.6a7.905,7.905,0,0,1,11.176,0,.836.836,0,1,1-1.182,1.182A6.232,6.232,0,0,0,65.417,35.784Zm-1.974-1.972a.835.835,0,0,1-1.179-1.182,10.692,10.692,0,0,1,15.122,0A.836.836,0,1,1,76.2,33.812,9.016,9.016,0,0,0,63.443,33.812Zm6.382-9.872a11.249,11.249,0,0,1,.6,22.483v8.423a3.242,3.242,0,0,1-.8,2.132,3.061,3.061,0,0,1,1.186,1.676L74.5,72.724a2.6,2.6,0,0,1,.085.683V75.8a3.453,3.453,0,0,1-3.446,3.446H29.426A3.451,3.451,0,0,1,25.98,75.8V73.343a2.459,2.459,0,0,1,.085-.619l3.692-14.071a3.055,3.055,0,0,1,1.182-1.676,3.239,3.239,0,0,1-.8-2.132v-21.6a3.273,3.273,0,0,1,3.267-3.263H59.852a11.244,11.244,0,0,1,9.973-6.041ZM68.754,46.389a11.113,11.113,0,0,1-2.213-.436v7.528a.834.834,0,0,1-.834.834H34.858a.832.832,0,0,1-.834-.834V34.609a.832.832,0,0,1,.834-.834h23.8a11.076,11.076,0,0,1,.48-2.125H33.409a1.6,1.6,0,0,0-1.6,1.595v21.6a1.6,1.6,0,0,0,1.6,1.595H67.155a1.605,1.605,0,0,0,1.6-1.595ZM64.872,45.3a11.254,11.254,0,0,1-6.3-9.852H35.692V52.65h29.18ZM76.6,28.413a9.582,9.582,0,1,0,0,13.551A9.586,9.586,0,0,0,76.6,28.413ZM55.909,44.67v6.047a.832.832,0,0,1-.834.834H45.487a.834.834,0,0,1-.834-.834V44.67h-.831a.833.833,0,0,1-.543-1.466l6.416-6.419a.829.829,0,0,1,1.179,0l6.463,6.463a.834.834,0,0,1-.591,1.419v0h-.835Zm-9.588,0v5.217h7.922V44.67Zm6.6-3.479L50.28,38.548,45.831,43h8.9ZM42.859,65.384H57.707a.832.832,0,0,1,.821.689l1.788,7.611h12.25c.344,0,.4-.26.324-.541L69.2,59.068a1.361,1.361,0,0,0-1.162-.959H32.527a1.366,1.366,0,0,0-1.162.959L27.672,73.144c-.072.274-.027.541.331.541H40.251l1.794-7.655a.835.835,0,0,1,.814-.642Zm14.189,1.669H43.517l-1.558,6.631H58.6ZM72.917,75.8v-.47l-.358.027H28l-.355-.027a2.046,2.046,0,0,0,.523,1.723,1.756,1.756,0,0,0,1.254.523H71.139A1.784,1.784,0,0,0,72.917,75.8Z"/>
    </g>
  </g>
</svg>
