<svg xmlns="http://www.w3.org/2000/svg" xmlns:xlink="http://www.w3.org/1999/xlink" width="113" height="113" viewBox="0 0 113 113">
  <defs>
    <filter id="Trazado_982547" x="0" y="0" width="113" height="113" filterUnits="userSpaceOnUse">
      <feOffset dy="3" input="SourceAlpha"/>
      <feGaussianBlur stdDeviation="3" result="blur"/>
      <feFlood flood-opacity="0.161"/>
      <feComposite operator="in" in2="blur"/>
      <feComposite in="SourceGraphic"/>
    </filter>
    <clipPath id="clip-path">
      <path id="path10806" d="M0-682.665H64.771v64.771H0Z" transform="translate(0 682.665)"/>
    </clipPath>
  </defs>
  <g id="Grupo_1226282" data-name="Grupo 1226282" transform="translate(-271.313 -9964.476)">
    <g id="Grupo_1225528" data-name="Grupo 1225528" transform="translate(0.313 8669.134)">
      <g id="Grupo_1225173" data-name="Grupo 1225173" transform="translate(0 -3445.654)">
        <g id="Grupo_1224643" data-name="Grupo 1224643" transform="translate(0 1927)">
          <g id="Grupo_1224291" data-name="Grupo 1224291" transform="translate(0 859.245)">
            <g id="Grupo_1224091" data-name="Grupo 1224091" transform="translate(-84.49 -2620.317)">
              <g id="Grupo_1223183" data-name="Grupo 1223183" transform="translate(364.49 4581.069)">
                <g id="Grupo_1211217" data-name="Grupo 1211217" transform="translate(0)">
                  <g id="Grupo_1210736" data-name="Grupo 1210736">
                    <g id="Grupo_1210537" data-name="Grupo 1210537">
                      <g id="Grupo_1164202" data-name="Grupo 1164202">
                        <g id="Grupo_1158168" data-name="Grupo 1158168">
                          <g id="Grupo_1152576" data-name="Grupo 1152576">
                            <g id="Grupo_1148633" data-name="Grupo 1148633">
                              <g id="Grupo_1148525" data-name="Grupo 1148525">
                                <g transform="matrix(1, 0, 0, 1, -9, -6)" filter="url(#Trazado_982547)">
                                  <g id="Trazado_982547-2" data-name="Trazado 982547" transform="translate(9 6)" fill="#fdf6e4">
                                    <path d="M 47.49999618530273 93.5 C 41.28936767578125 93.5 35.26533126831055 92.28396606445312 29.59518241882324 89.88570404052734 C 24.11771583557129 87.56893157958984 19.19812965393066 84.251953125 14.97308921813965 80.02690124511719 C 10.74803638458252 75.80186462402344 7.431062698364258 70.88227844238281 5.114289283752441 65.40480804443359 C 2.716022968292236 59.73466110229492 1.499996185302734 53.71062469482422 1.499996185302734 47.49999618530273 C 1.499996185302734 41.28936767578125 2.716022968292236 35.26533126831055 5.114289283752441 29.59518241882324 C 7.431062698364258 24.11771583557129 10.74803638458252 19.19812965393066 14.97308921813965 14.97308921813965 C 19.19812965393066 10.74803638458252 24.11771583557129 7.431062698364258 29.59518241882324 5.114289283752441 C 35.26533126831055 2.716022968292236 41.28936767578125 1.499996185302734 47.49999618530273 1.499996185302734 C 53.71062469482422 1.499996185302734 59.73466110229492 2.716022968292236 65.40480804443359 5.114289283752441 C 70.88227844238281 7.431062698364258 75.80186462402344 10.74803638458252 80.02690124511719 14.97308921813965 C 84.251953125 19.19812965393066 87.56893157958984 24.11771583557129 89.88570404052734 29.59518241882324 C 92.28396606445312 35.26533126831055 93.5 41.28936767578125 93.5 47.49999618530273 C 93.5 53.71062469482422 92.28396606445312 59.73466110229492 89.88570404052734 65.40480804443359 C 87.56893157958984 70.88227844238281 84.251953125 75.80186462402344 80.02690124511719 80.02690124511719 C 75.80186462402344 84.251953125 70.88227844238281 87.56893157958984 65.40480804443359 89.88570404052734 C 59.73466110229492 92.28396606445312 53.71062469482422 93.5 47.49999618530273 93.5 Z" stroke="none"/>
                                    <path d="M 47.49999618530273 2.999992370605469 C 41.4912109375 2.999992370605469 35.66376495361328 4.1761474609375 30.17950439453125 6.495796203613281 C 24.88084411621094 8.736953735351562 20.12152099609375 11.94598388671875 16.03375244140625 16.03375244140625 C 11.94598388671875 20.12152099609375 8.736953735351562 24.88084411621094 6.495796203613281 30.17950439453125 C 4.1761474609375 35.66376495361328 2.999992370605469 41.4912109375 2.999992370605469 47.49999618530273 C 2.999992370605469 53.50878143310547 4.1761474609375 59.33622741699219 6.495796203613281 64.82048797607422 C 8.736953735351562 70.11914825439453 11.94598388671875 74.87847137451172 16.03375244140625 78.96623992919922 C 20.12152099609375 83.05400848388672 24.88084411621094 86.26304626464844 30.17950439453125 88.50419616699219 C 35.66376495361328 90.82384490966797 41.4912109375 92 47.49999618530273 92 C 53.50878143310547 92 59.33622741699219 90.82384490966797 64.82048797607422 88.50419616699219 C 70.11914825439453 86.26304626464844 74.87847137451172 83.05400848388672 78.96623992919922 78.96623992919922 C 83.05400848388672 74.87847137451172 86.26304626464844 70.11914825439453 88.50419616699219 64.82048797607422 C 90.82384490966797 59.33622741699219 92 53.50878143310547 92 47.49999618530273 C 92 41.4912109375 90.82384490966797 35.66376495361328 88.50419616699219 30.17950439453125 C 86.26304626464844 24.88084411621094 83.05400848388672 20.12152099609375 78.96623992919922 16.03375244140625 C 74.87847137451172 11.94598388671875 70.11914825439453 8.736953735351562 64.82048797607422 6.495796203613281 C 59.33622741699219 4.1761474609375 53.50878143310547 2.999992370605469 47.49999618530273 2.999992370605469 M 47.49999618530273 -7.62939453125e-06 C 73.7335205078125 -7.62939453125e-06 95 21.26647186279297 95 47.49999618530273 C 95 73.7335205078125 73.7335205078125 95 47.49999618530273 95 C 21.26647186279297 95 -7.62939453125e-06 73.7335205078125 -7.62939453125e-06 47.49999618530273 C -7.62939453125e-06 21.26647186279297 21.26647186279297 -7.62939453125e-06 47.49999618530273 -7.62939453125e-06 Z" stroke="none" fill="#f5b104"/>
                                  </g>
                                </g>
                              </g>
                            </g>
                          </g>
                        </g>
                      </g>
                    </g>
                  </g>
                </g>
              </g>
            </g>
          </g>
        </g>
      </g>
    </g>
    <g id="g10800" transform="translate(295.918 10664.255)">
      <g id="g10802" transform="translate(0 -682.665)">
        <g id="g10804" clip-path="url(#clip-path)">
          <g id="g10810" transform="translate(7.448 20.669)">
            <path id="path10812" d="M-475.783-336.592h-49.874V-370.61a1.265,1.265,0,0,1,1.265-1.265h47.344a1.265,1.265,0,0,1,1.265,1.265Z" transform="translate(525.657 371.875)" fill="#596c76"/>
          </g>
          <g id="g10814" transform="translate(7.448 20.669)">
            <path id="path10816" d="M-67.729,0h-5.835a1.265,1.265,0,0,0-1.265,1.265V35.283h5.835V1.265A1.265,1.265,0,0,1-67.729,0" transform="translate(74.829 0)" fill="#465a61"/>
          </g>
          <g id="g10818" transform="translate(7.448 20.669)">
            <path id="path10820" d="M-475.783-336.592h-49.874V-370.61a1.265,1.265,0,0,1,1.265-1.265h47.344a1.265,1.265,0,0,1,1.265,1.265Z" transform="translate(525.657 371.875)" fill="none" stroke="#000" stroke-linecap="round" stroke-linejoin="round" stroke-miterlimit="10" stroke-width="1.2"/>
          </g>
          <g id="g10822" transform="translate(10.764 23.985)">
            <path id="path10824" d="M0-247.885v-25.352a.632.632,0,0,1,.633-.633H42.609a.632.632,0,0,1,.633.633v25.352a.632.632,0,0,1-.633.633H.633A.632.632,0,0,1,0-247.885" transform="translate(0 273.87)" fill="#fff"/>
          </g>
          <g id="g10826" transform="translate(10.764 23.985)">
            <path id="path10828" d="M-37.3-247.885v-25.352a.632.632,0,0,1,.633-.633h-3.91a.632.632,0,0,0-.633.633v25.352a.632.632,0,0,0,.633.633h3.91a.632.632,0,0,1-.633-.633" transform="translate(41.212 273.87)" fill="#e8edf1"/>
          </g>
          <g id="g10830" transform="translate(10.765 23.985)">
            <path id="path10832" d="M-412.514-88.587v-8.654a.632.632,0,0,0-.633-.633h-41.977a.632.632,0,0,0-.633.633v25.352a.632.632,0,0,0,.633.633h41.977a.632.632,0,0,0,.633-.633V-84.159" transform="translate(455.756 97.873)" fill="none" stroke="#000" stroke-linecap="round" stroke-linejoin="round" stroke-miterlimit="10" stroke-width="1.2"/>
          </g>
          <g id="g10834" transform="translate(0.949 53.918)">
            <path id="path10836" d="M-587.723,0h-60.343a1.265,1.265,0,0,0-1.265,1.265V4a1.265,1.265,0,0,0,1.265,1.265h60.343A1.265,1.265,0,0,0-586.458,4V1.265A1.265,1.265,0,0,0-587.723,0" transform="translate(649.332 0)" fill="#7a8d98"/>
          </g>
          <g id="g10838" transform="translate(0.949 53.918)">
            <path id="path10840" d="M-73.013-38.126v-2.732a1.265,1.265,0,0,1,1.265-1.265H-79.4a1.265,1.265,0,0,0-1.265,1.265v2.732A1.265,1.265,0,0,0-79.4-36.861h7.654a1.265,1.265,0,0,1-1.265-1.265" transform="translate(80.666 42.123)" fill="#596c76"/>
          </g>
          <g id="g10842" transform="translate(0.949 53.918)">
            <path id="path10844" d="M-150.25-50.194h45.858a1.265,1.265,0,0,0,1.265-1.265v-2.732a1.265,1.265,0,0,0-1.265-1.265h-60.343A1.265,1.265,0,0,0-166-54.191v2.732a1.265,1.265,0,0,0,1.265,1.265h10.057" transform="translate(166 55.456)" fill="none" stroke="#000" stroke-linecap="round" stroke-linejoin="round" stroke-miterlimit="10" stroke-width="1.2"/>
          </g>
          <path id="path10846" d="M250.666-109.123h17.2v-5.262h-17.2Z" transform="translate(-226.883 168.303)" fill="#c5d3dd"/>
          <path id="path10848" d="M250.666-109.123h3.8v-5.262h-3.8Z" transform="translate(-226.883 168.303)" fill="#b6c4cf"/>
          <path id="path10850" d="M250.666-109.123h17.2v-5.262h-17.2Z" transform="translate(-226.883 168.303)" fill="none" stroke="#000" stroke-linecap="round" stroke-linejoin="round" stroke-miterlimit="10" stroke-width="1.2"/>
          <g id="g10852" transform="translate(59.331 55.6)">
            <path id="path10854" d="M-18.1-9.051a.949.949,0,0,1-.949.949A.949.949,0,0,1-20-9.051.949.949,0,0,1-19.051-10a.949.949,0,0,1,.949.949" transform="translate(20 10)"/>
          </g>
          <g id="g10856" transform="translate(56.422 55.6)">
            <path id="path10858" d="M-18.1-9.051a.949.949,0,0,1-.949.949A.949.949,0,0,1-20-9.051.949.949,0,0,1-19.051-10a.949.949,0,0,1,.949.949" transform="translate(20 10)"/>
          </g>
          <g id="g10860" transform="translate(16.329 5.591)">
            <path id="path10862" d="M-153.177-306.355a16.075,16.075,0,0,1-16.057-16.057,16.075,16.075,0,0,1,16.057-16.057,16.075,16.075,0,0,1,16.057,16.057,16.075,16.075,0,0,1-16.057,16.057" transform="translate(169.234 338.469)" fill="#dff6fd"/>
          </g>
          <g id="g10864" transform="translate(16.329 5.591)">
            <path id="path10866" d="M-153.177-306.355a16.075,16.075,0,0,1-16.057-16.057,16.075,16.075,0,0,1,16.057-16.057,16.075,16.075,0,0,1,16.057,16.057A16.075,16.075,0,0,1-153.177-306.355Z" transform="translate(169.234 338.469)" fill="none" stroke="#000" stroke-linecap="round" stroke-linejoin="round" stroke-miterlimit="10" stroke-width="1.2"/>
          </g>
          <g id="g10868" transform="translate(20.839 10.102)">
            <path id="path10870" d="M-110.149-220.3A11.559,11.559,0,0,1-121.7-231.846a11.559,11.559,0,0,1,11.546-11.547A11.559,11.559,0,0,1-98.6-231.846,11.559,11.559,0,0,1-110.149-220.3" transform="translate(121.696 243.393)" fill="#99e6fc"/>
          </g>
          <g id="g10872" transform="translate(20.839 10.315)">
            <path id="path10874" d="M-89.03,0a11.565,11.565,0,0,0-9.333,11.333A11.559,11.559,0,0,0-86.816,22.879,11.559,11.559,0,0,0-75.27,11.333,11.565,11.565,0,0,0-84.6,0" transform="translate(98.362)" fill="none" stroke="#000" stroke-linecap="round" stroke-linejoin="round" stroke-miterlimit="10" stroke-width="1.2"/>
          </g>
          <g id="g10876" transform="translate(25.349 14.612)">
            <path id="path10878" d="M-134.245-67.122a7.036,7.036,0,0,1-7.036,7.036,7.036,7.036,0,0,1-7.036-7.036,7.036,7.036,0,0,1,7.036-7.036,7.036,7.036,0,0,1,7.036,7.036" transform="translate(148.317 74.158)" fill="#01d0fb"/>
          </g>
          <g id="g10880" transform="translate(25.349 14.612)">
            <path id="path10882" d="M-134.245-67.122a7.036,7.036,0,0,1-7.036,7.036,7.036,7.036,0,0,1-7.036-7.036,7.036,7.036,0,0,1,7.036-7.036A7.036,7.036,0,0,1-134.245-67.122Z" transform="translate(148.317 74.158)" fill="none" stroke="#000" stroke-linecap="round" stroke-linejoin="round" stroke-miterlimit="10" stroke-width="1.2"/>
          </g>
          <g id="g10884" transform="translate(24.479 20.127)">
            <path id="path10886" d="M-18.1-250.411H-6.084a1.9,1.9,0,0,0,1.9-1.9v-22.454a1.9,1.9,0,0,0-1.9-1.9H-18.1a1.9,1.9,0,0,0-1.9,1.9v22.454a1.9,1.9,0,0,0,1.9,1.9" transform="translate(20 276.661)" fill="#596c76"/>
          </g>
          <g id="g10888" transform="translate(24.479 20.127)">
            <path id="path10890" d="M-36.808-232.309v-22.454a1.9,1.9,0,0,1,1.9-1.9h-3.858a1.9,1.9,0,0,0-1.9,1.9v22.454a1.9,1.9,0,0,0,1.9,1.9h3.858a1.9,1.9,0,0,1-1.9-1.9" transform="translate(40.667 256.661)" fill="#465a61"/>
          </g>
          <g id="g10892" transform="translate(24.479 20.127)">
            <path id="path10894" d="M-18.1-250.411H-6.084a1.9,1.9,0,0,0,1.9-1.9v-22.454a1.9,1.9,0,0,0-1.9-1.9H-18.1a1.9,1.9,0,0,0-1.9,1.9v22.454A1.9,1.9,0,0,0-18.1-250.411Z" transform="translate(20 276.661)" fill="none" stroke="#000" stroke-linecap="round" stroke-linejoin="round" stroke-miterlimit="10" stroke-width="1.2"/>
          </g>
          <g id="g10896" transform="translate(24.479 18.292)">
            <path id="path10898" d="M-12.068,0H1.215A1.265,1.265,0,0,1,2.48,1.265V23.593H-13.333V1.265A1.265,1.265,0,0,1-12.068,0" transform="translate(13.333 0)" fill="#fddf30"/>
          </g>
          <g id="g10900" transform="translate(24.479 18.292)">
            <path id="path10902" d="M-48.876,0h-3.858A1.265,1.265,0,0,0-54,1.265V23.593h3.858V1.265A1.265,1.265,0,0,1-48.876,0" transform="translate(54 0)" fill="#fed402"/>
          </g>
          <g id="g10904" transform="translate(24.479 18.292)">
            <path id="path10906" d="M-12.068,0H1.215A1.265,1.265,0,0,1,2.48,1.265V23.593H-13.333V1.265A1.265,1.265,0,0,1-12.068,0Z" transform="translate(13.333 0)" fill="none" stroke="#000" stroke-linecap="round" stroke-linejoin="round" stroke-miterlimit="10" stroke-width="1.2"/>
          </g>
          <g id="g10908" transform="translate(30.672 21.422)">
            <path id="path10910" d="M-32.688,0h-3.427" transform="translate(36.115)" fill="none" stroke="#000" stroke-linecap="round" stroke-linejoin="round" stroke-miterlimit="10" stroke-width="1.2"/>
          </g>
          <g id="g10912" transform="translate(28.742 38.153)">
            <path id="path10914" d="M-69.519,0h-7.287" transform="translate(76.806)" fill="none" stroke="#000" stroke-linecap="round" stroke-linejoin="round" stroke-miterlimit="10" stroke-width="1.2"/>
          </g>
          <g id="g10916" transform="translate(28.13 27.147)">
            <path id="path10918" d="M0-16.791a6.025,6.025,0,0,1,8.512,0" transform="translate(0 18.551)" fill="none" stroke="#000" stroke-linecap="round" stroke-linejoin="round" stroke-miterlimit="10" stroke-width="1.2"/>
          </g>
          <g id="g10920" transform="translate(30.176 30.038)">
            <path id="path10922" d="M0-8.732a3.125,3.125,0,0,1,4.42,0" transform="translate(0 9.647)" fill="none" stroke="#000" stroke-linecap="round" stroke-linejoin="round" stroke-miterlimit="10" stroke-width="1.2"/>
          </g>
          <g id="g10924" transform="translate(31.437 32.145)">
            <path id="path10926" d="M-15.452-15.451a.949.949,0,0,0,0-1.342.949.949,0,0,0-1.342,0,.949.949,0,0,0,0,1.342.949.949,0,0,0,1.342,0" transform="translate(17.072 17.07)"/>
          </g>
          <g id="g10928" transform="translate(15.37 41.189)">
            <path id="path10930" d="M-45.859-49.48h-4.428a.379.379,0,0,1-.38-.38v-4.428a.38.38,0,0,1,.38-.38h4.428a.38.38,0,0,1,.38.38v4.428a.379.379,0,0,1-.38.38" transform="translate(50.667 54.667)" fill="#00c27a"/>
          </g>
          <g id="g10932" transform="translate(15.37 41.189)">
            <path id="path10934" d="M-18.706-45.859v-4.428a.38.38,0,0,1,.38-.38h-1.961a.38.38,0,0,0-.38.38v4.428a.379.379,0,0,0,.38.38h1.961a.379.379,0,0,1-.38-.38" transform="translate(20.667 50.667)" fill="#09a755"/>
          </g>
          <g id="g10936" transform="translate(15.37 41.189)">
            <path id="path10938" d="M-45.859-49.48h-4.428a.379.379,0,0,1-.38-.38v-4.428a.38.38,0,0,1,.38-.38h4.428a.38.38,0,0,1,.38.38v4.428A.379.379,0,0,1-45.859-49.48Z" transform="translate(50.667 54.667)" fill="none" stroke="#000" stroke-linecap="round" stroke-linejoin="round" stroke-miterlimit="10" stroke-width="1.2"/>
          </g>
          <g id="g10940" transform="translate(44.214 41.189)">
            <path id="path10942" d="M-45.859-49.48h-4.428a.379.379,0,0,1-.38-.38v-4.428a.38.38,0,0,1,.38-.38h4.428a.38.38,0,0,1,.38.38v4.428a.379.379,0,0,1-.38.38" transform="translate(50.667 54.667)" fill="#fe646f"/>
          </g>
          <g id="g10944" transform="translate(44.214 41.189)">
            <path id="path10946" d="M-18.706-45.859v-4.428a.38.38,0,0,1,.38-.38h-1.961a.38.38,0,0,0-.38.38v4.428a.379.379,0,0,0,.38.38h1.961a.379.379,0,0,1-.38-.38" transform="translate(20.667 50.667)" fill="#fd4755"/>
          </g>
          <g id="g10948" transform="translate(44.214 41.189)">
            <path id="path10950" d="M-45.859-49.48h-4.428a.379.379,0,0,1-.38-.38v-4.428a.38.38,0,0,1,.38-.38h4.428a.38.38,0,0,1,.38.38v4.428A.379.379,0,0,1-45.859-49.48Z" transform="translate(50.667 54.667)" fill="none" stroke="#000" stroke-linecap="round" stroke-linejoin="round" stroke-miterlimit="10" stroke-width="1.2"/>
          </g>
        </g>
      </g>
    </g>
  </g>
</svg>
