<svg xmlns="http://www.w3.org/2000/svg" xmlns:xlink="http://www.w3.org/1999/xlink" width="113" height="113" viewBox="0 0 113 113">
  <defs>
    <filter id="Trazado_982547" x="0" y="0" width="113" height="113" filterUnits="userSpaceOnUse">
      <feOffset dy="3" input="SourceAlpha"/>
      <feGaussianBlur stdDeviation="3" result="blur"/>
      <feFlood flood-opacity="0.161"/>
      <feComposite operator="in" in2="blur"/>
      <feComposite in="SourceGraphic"/>
    </filter>
  </defs>
  <g id="Grupo_1226284" data-name="Grupo 1226284" transform="translate(-585.822 -9964.476)">
    <g id="Grupo_1225529" data-name="Grupo 1225529" transform="translate(0.313 8669.134)">
      <g id="Grupo_1225176" data-name="Grupo 1225176" transform="translate(0 -3445.654)">
        <g id="Grupo_1224647" data-name="Grupo 1224647" transform="translate(0 1927)">
          <g id="Grupo_1224292" data-name="Grupo 1224292" transform="translate(0 859.245)">
            <g id="Grupo_1224092" data-name="Grupo 1224092" transform="translate(-88.49 -2620.317)">
              <g id="Grupo_1223184" data-name="Grupo 1223184" transform="translate(683 4581.069)">
                <g id="Grupo_1211216" data-name="Grupo 1211216" transform="translate(0)">
                  <g id="Grupo_1210737" data-name="Grupo 1210737">
                    <g id="Grupo_1210537" data-name="Grupo 1210537">
                      <g id="Grupo_1164202" data-name="Grupo 1164202">
                        <g id="Grupo_1158168" data-name="Grupo 1158168">
                          <g id="Grupo_1152576" data-name="Grupo 1152576">
                            <g id="Grupo_1148633" data-name="Grupo 1148633">
                              <g id="Grupo_1148525" data-name="Grupo 1148525">
                                <g transform="matrix(1, 0, 0, 1, -9, -6)" filter="url(#Trazado_982547)">
                                  <g id="Trazado_982547-2" data-name="Trazado 982547" transform="translate(9 6)" fill="#fdf6e4">
                                    <path d="M 47.49999618530273 93.5 C 41.28936767578125 93.5 35.26533126831055 92.28396606445312 29.59518241882324 89.88570404052734 C 24.11771583557129 87.56893157958984 19.19812965393066 84.251953125 14.97308921813965 80.02690124511719 C 10.74803638458252 75.80186462402344 7.431062698364258 70.88227844238281 5.114289283752441 65.40480804443359 C 2.716022968292236 59.73466110229492 1.499996185302734 53.71062469482422 1.499996185302734 47.49999618530273 C 1.499996185302734 41.28936767578125 2.716022968292236 35.26533126831055 5.114289283752441 29.59518241882324 C 7.431062698364258 24.11771583557129 10.74803638458252 19.19812965393066 14.97308921813965 14.97308921813965 C 19.19812965393066 10.74803638458252 24.11771583557129 7.431062698364258 29.59518241882324 5.114289283752441 C 35.26533126831055 2.716022968292236 41.28936767578125 1.499996185302734 47.49999618530273 1.499996185302734 C 53.71062469482422 1.499996185302734 59.73466110229492 2.716022968292236 65.40480804443359 5.114289283752441 C 70.88227844238281 7.431062698364258 75.80186462402344 10.74803638458252 80.02690124511719 14.97308921813965 C 84.251953125 19.19812965393066 87.56893157958984 24.11771583557129 89.88570404052734 29.59518241882324 C 92.28396606445312 35.26533126831055 93.5 41.28936767578125 93.5 47.49999618530273 C 93.5 53.71062469482422 92.28396606445312 59.73466110229492 89.88570404052734 65.40480804443359 C 87.56893157958984 70.88227844238281 84.251953125 75.80186462402344 80.02690124511719 80.02690124511719 C 75.80186462402344 84.251953125 70.88227844238281 87.56893157958984 65.40480804443359 89.88570404052734 C 59.73466110229492 92.28396606445312 53.71062469482422 93.5 47.49999618530273 93.5 Z" stroke="none"/>
                                    <path d="M 47.49999618530273 2.999992370605469 C 41.4912109375 2.999992370605469 35.66376495361328 4.1761474609375 30.17950439453125 6.495796203613281 C 24.88084411621094 8.736953735351562 20.12152099609375 11.94598388671875 16.03375244140625 16.03375244140625 C 11.94598388671875 20.12152099609375 8.736953735351562 24.88084411621094 6.495796203613281 30.17950439453125 C 4.1761474609375 35.66376495361328 2.999992370605469 41.4912109375 2.999992370605469 47.49999618530273 C 2.999992370605469 53.50878143310547 4.1761474609375 59.33622741699219 6.495796203613281 64.82048797607422 C 8.736953735351562 70.11914825439453 11.94598388671875 74.87847137451172 16.03375244140625 78.96623992919922 C 20.12152099609375 83.05400848388672 24.88084411621094 86.26304626464844 30.17950439453125 88.50419616699219 C 35.66376495361328 90.82384490966797 41.4912109375 92 47.49999618530273 92 C 53.50878143310547 92 59.33622741699219 90.82384490966797 64.82048797607422 88.50419616699219 C 70.11914825439453 86.26304626464844 74.87847137451172 83.05400848388672 78.96623992919922 78.96623992919922 C 83.05400848388672 74.87847137451172 86.26304626464844 70.11914825439453 88.50419616699219 64.82048797607422 C 90.82384490966797 59.33622741699219 92 53.50878143310547 92 47.49999618530273 C 92 41.4912109375 90.82384490966797 35.66376495361328 88.50419616699219 30.17950439453125 C 86.26304626464844 24.88084411621094 83.05400848388672 20.12152099609375 78.96623992919922 16.03375244140625 C 74.87847137451172 11.94598388671875 70.11914825439453 8.736953735351562 64.82048797607422 6.495796203613281 C 59.33622741699219 4.1761474609375 53.50878143310547 2.999992370605469 47.49999618530273 2.999992370605469 M 47.49999618530273 -7.62939453125e-06 C 73.7335205078125 -7.62939453125e-06 95 21.26647186279297 95 47.49999618530273 C 95 73.7335205078125 73.7335205078125 95 47.49999618530273 95 C 21.26647186279297 95 -7.62939453125e-06 73.7335205078125 -7.62939453125e-06 47.49999618530273 C -7.62939453125e-06 21.26647186279297 21.26647186279297 -7.62939453125e-06 47.49999618530273 -7.62939453125e-06 Z" stroke="none" fill="#f5b104"/>
                                  </g>
                                </g>
                              </g>
                            </g>
                          </g>
                        </g>
                      </g>
                    </g>
                  </g>
                </g>
              </g>
            </g>
          </g>
        </g>
      </g>
    </g>
    <g id="continuity_18404857" transform="translate(581.5 9960.827)">
      <path id="Trazado_1058161" data-name="Trazado 1058161" d="M237.3,39.459l-3.361,3.771a1.03,1.03,0,0,1-.755.35h-.021a1.057,1.057,0,0,1-.751-.316l-1.7-1.771a1.041,1.041,0,1,1,1.5-1.447l.924.962,2.615-2.935a1.046,1.046,0,0,1,1.472-.08,1.033,1.033,0,0,1,.084,1.468Zm1.21-3.323h-9.034V45.17h9.034Z" transform="translate(-173.172 -11.92)" fill="#45dea6"/>
      <path id="Trazado_1058162" data-name="Trazado 1058162" d="M47.891,230.433,44.525,234.2a1.032,1.032,0,0,1-.759.35h-.021a1.041,1.041,0,0,1-.746-.316l-1.7-1.767a1.041,1.041,0,1,1,1.5-1.447l.924.957,2.615-2.935a1.044,1.044,0,0,1,1.556,1.392Zm1.2-3.328H40.067v9.034h9.026Z" transform="translate(-11.942 -174.475)" fill="#45dea6"/>
      <path id="Trazado_1058163" data-name="Trazado 1058163" d="M164.692,152.311A10.01,10.01,0,1,1,154.679,142.3,10.024,10.024,0,0,1,164.692,152.311Zm-7.069-14.133-.8-3.5c-.025-.127-.19-.751-.544-.751h-3.205c-.358,0-.519.624-.548.751l-.789,3.492a1.037,1.037,0,0,1-.742.776,13.582,13.582,0,0,0-3.155,1.307,1.039,1.039,0,0,1-1.071-.021l-3.037-1.911c-.114-.068-.666-.4-.919-.148l-2.265,2.269c-.253.249.076.81.148.92l1.911,3.032a1.059,1.059,0,0,1,.021,1.071,13.7,13.7,0,0,0-1.312,3.159,1.05,1.05,0,0,1-.776.742l-3.492.793c-.127.025-.747.19-.747.544v3.205c0,.354.62.515.747.544l3.492.8a1.044,1.044,0,0,1,.776.742,13.853,13.853,0,0,0,1.312,3.159,1.051,1.051,0,0,1-.021,1.067l-1.911,3.032c-.072.11-.4.671-.148.919l2.265,2.265c.253.253.806-.076.911-.143l3.045-1.911a.993.993,0,0,1,.552-.16,1.094,1.094,0,0,1,.519.135A13.59,13.59,0,0,0,151,165.673a1.038,1.038,0,0,1,.742.772l.789,3.5c.03.126.19.755.548.755h3.205c.354,0,.519-.628.544-.751l.8-3.5a1.038,1.038,0,0,1,.742-.772,13.7,13.7,0,0,0,3.159-1.312,1.032,1.032,0,0,1,1.067.025l3.032,1.911c.11.068.666.4.915.143l2.269-2.265c.253-.253-.076-.81-.148-.919l-1.911-3.032a1.042,1.042,0,0,1-.021-1.067,14.05,14.05,0,0,0,1.316-3.163,1.032,1.032,0,0,1,.772-.738l3.492-.8c.122-.029.755-.19.755-.544v-3.205c0-.354-.633-.519-.751-.544l-3.5-.793a1.056,1.056,0,0,1-.78-.742,13.688,13.688,0,0,0-1.307-3.159,1.049,1.049,0,0,1,.021-1.071l1.911-3.037c.072-.11.4-.662.148-.915l-2.269-2.269c-.245-.249-.806.08-.915.148l-3.032,1.911a1.031,1.031,0,0,1-1.067.021,13.676,13.676,0,0,0-3.159-1.307,1.038,1.038,0,0,1-.742-.772Z" transform="translate(-93.86 -95.165)" fill="#7b849b"/>
      <path id="Trazado_1058164" data-name="Trazado 1058164" d="M420.123,230.995a1.04,1.04,0,0,1,1.472.025l.928.957,2.619-2.935a1.042,1.042,0,0,1,1.552,1.392l-3.366,3.766a1.038,1.038,0,0,1-.755.35h-.021a1.058,1.058,0,0,1-.751-.316l-1.7-1.767a1.036,1.036,0,0,1,.021-1.472Zm-1.261,5.146H427.9v-9.034h-9.038Z" transform="translate(-334.377 -174.476)" fill="#45dea6"/>
      <path id="Trazado_1058165" data-name="Trazado 1058165" d="M230.732,421.968a1.045,1.045,0,0,1,1.476.021l.924.957,2.615-2.935a1.046,1.046,0,0,1,1.472-.08,1.033,1.033,0,0,1,.084,1.468l-3.361,3.771a1.045,1.045,0,0,1-.755.35h-.021a1.057,1.057,0,0,1-.751-.316l-1.7-1.763a1.04,1.04,0,0,1,.021-1.472Zm-1.253,5.145h9.034v-9.038h-9.034Z" transform="translate(-173.172 -337.031)" fill="#45dea6"/>
      <path id="Trazado_1058166" data-name="Trazado 1058166" d="M215.514,209.4v4.34h1.637v-5.829a1.04,1.04,0,1,1,2.079,0v5.829h.371a1.042,1.042,0,0,1,0,2.083H209.343a1.042,1.042,0,1,1,0-2.083h.367v-2.109a1.044,1.044,0,0,1,2.088,0v2.109h1.632V209.4a1.042,1.042,0,0,1,2.083,0Zm-8.967,2.725a7.927,7.927,0,1,0,7.925-7.925A7.938,7.938,0,0,0,206.547,212.127Z" transform="translate(-153.652 -154.98)" fill="#e8ecf9"/>
      <path id="Trazado_1058167" data-name="Trazado 1058167" d="M117.662,89.728a2.714,2.714,0,0,1,3.5.143l2.269,2.265a2.712,2.712,0,0,1,.139,3.5l-1.582,2.518a16.1,16.1,0,0,1,1.029,2.48l2.9.658a2.716,2.716,0,0,1,2.379,2.577v3.205a2.716,2.716,0,0,1-2.379,2.577l-2.9.662a16.075,16.075,0,0,1-1.029,2.48l1.582,2.514a2.706,2.706,0,0,1-.139,3.5l-2.269,2.269a2.705,2.705,0,0,1-3.5.143l-2.522-1.586a16.058,16.058,0,0,1-2.476,1.029l-.666,2.9a2.708,2.708,0,0,1-2.573,2.375H106.22a2.709,2.709,0,0,1-2.577-2.379l-.658-2.9a16.037,16.037,0,0,1-2.476-1.029l-2.526,1.586a2.711,2.711,0,0,1-3.5-.143l-2.265-2.269a2.725,2.725,0,0,1-.148-3.5l1.586-2.518a16.523,16.523,0,0,1-1.029-2.48l-2.893-.662a2.716,2.716,0,0,1-2.375-2.577v-3.205a2.716,2.716,0,0,1,2.375-2.577l2.893-.658a16.506,16.506,0,0,1,1.029-2.48l-1.582-2.522a2.727,2.727,0,0,1,.143-3.5l2.265-2.265a2.716,2.716,0,0,1,3.5-.143l2.526,1.586a15.636,15.636,0,0,1,2.476-1.029l.658-2.9a2.711,2.711,0,0,1,2.577-2.37h3.205A2.7,2.7,0,0,1,112,87.383l.666,2.9a15.63,15.63,0,0,1,2.476,1.029l2.522-1.586Zm-3.235-7.107a1.044,1.044,0,0,1-1.042,1.042H102.264a1.044,1.044,0,0,1-1.042-1.042V78.91A27.479,27.479,0,0,0,81.256,98.876H85.2a1.042,1.042,0,0,1,1.046,1.042v11.118a1.042,1.042,0,0,1-1.046,1.042H81.256a27.485,27.485,0,0,0,19.966,19.966v-3.712a1.044,1.044,0,0,1,1.042-1.042h11.122a1.044,1.044,0,0,1,1.042,1.042v3.707a27.456,27.456,0,0,0,19.958-19.962h-3.939a1.044,1.044,0,0,1-1.042-1.042V99.918a1.044,1.044,0,0,1,1.042-1.042h3.939A27.468,27.468,0,0,0,114.427,78.91Z" transform="translate(-47.003 -48.33)" fill="#e8ecf9"/>
      <g id="Grupo_1226283" data-name="Grupo 1226283" transform="translate(26.037 22.132)">
        <path id="Trazado_1058168" data-name="Trazado 1058168" d="M150.65,128.316l3.032-1.911c.11-.068.671-.4.915-.148l2.269,2.269c.257.253-.076.806-.148.915l-1.911,3.037a1.049,1.049,0,0,0-.021,1.071,13.688,13.688,0,0,1,1.307,3.159,1.056,1.056,0,0,0,.78.742l3.5.793c.118.025.751.19.751.544v3.205c0,.354-.633.515-.755.544l-3.492.8a1.033,1.033,0,0,0-.772.738,14.036,14.036,0,0,1-1.316,3.163,1.041,1.041,0,0,0,.021,1.067l1.911,3.032c.072.11.4.666.148.919L154.6,154.52c-.249.253-.806-.076-.915-.143l-3.032-1.911a1.031,1.031,0,0,0-1.067-.025,13.7,13.7,0,0,1-3.159,1.312,1.038,1.038,0,0,0-.742.772l-.8,3.5c-.025.122-.19.751-.544.751h-3.205c-.358,0-.519-.628-.548-.755l-.789-3.5a1.038,1.038,0,0,0-.742-.772,13.589,13.589,0,0,1-3.155-1.312,1.094,1.094,0,0,0-.519-.135.993.993,0,0,0-.552.16l-3.045,1.911c-.105.068-.658.4-.911.143l-2.265-2.265c-.253-.249.076-.81.148-.919l1.911-3.032a1.051,1.051,0,0,0,.021-1.067,13.855,13.855,0,0,1-1.312-3.159,1.043,1.043,0,0,0-.776-.742l-3.492-.8c-.127-.029-.747-.19-.747-.544v-3.205c0-.354.62-.519.747-.544l3.492-.793a1.05,1.05,0,0,0,.776-.742,13.7,13.7,0,0,1,1.312-3.159,1.059,1.059,0,0,0-.021-1.071l-1.911-3.032c-.072-.11-.4-.671-.148-.919l2.265-2.269c.253-.249.806.08.92.148l3.037,1.911a1.039,1.039,0,0,0,1.071.021,13.569,13.569,0,0,1,3.155-1.307,1.037,1.037,0,0,0,.742-.776l.789-3.492c.03-.127.19-.751.548-.751h3.205c.354,0,.519.624.544.751l.8,3.5a1.038,1.038,0,0,0,.742.772,13.691,13.691,0,0,1,3.159,1.307,1.031,1.031,0,0,0,1.067-.021Zm-3.737-6.019a2.7,2.7,0,0,0-2.573-2.37h-3.205a2.711,2.711,0,0,0-2.577,2.37l-.658,2.9a15.622,15.622,0,0,0-2.476,1.029l-2.526-1.586a2.717,2.717,0,0,0-3.5.143l-2.265,2.265a2.726,2.726,0,0,0-.143,3.5l1.582,2.522a16.523,16.523,0,0,0-1.029,2.48l-2.893.658a2.716,2.716,0,0,0-2.375,2.577v3.205a2.716,2.716,0,0,0,2.375,2.577l2.893.662a16.517,16.517,0,0,0,1.029,2.48l-1.586,2.518a2.725,2.725,0,0,0,.148,3.5L129.4,156a2.711,2.711,0,0,0,3.5.143l2.526-1.586a16.05,16.05,0,0,0,2.476,1.029l.658,2.9a2.709,2.709,0,0,0,2.577,2.379h3.205a2.708,2.708,0,0,0,2.573-2.375l.666-2.9a16.044,16.044,0,0,0,2.476-1.029l2.522,1.586a2.705,2.705,0,0,0,3.5-.143l2.269-2.269a2.706,2.706,0,0,0,.139-3.5l-1.582-2.514a16.1,16.1,0,0,0,1.029-2.48l2.9-.662a2.716,2.716,0,0,0,2.379-2.577v-3.205a2.716,2.716,0,0,0-2.379-2.577l-2.9-.658a16.066,16.066,0,0,0-1.029-2.48l1.582-2.518a2.712,2.712,0,0,0-.139-3.5l-2.269-2.265a2.714,2.714,0,0,0-3.5-.143l-2.522,1.586a15.644,15.644,0,0,0-2.476-1.029l-.666-2.9Z" transform="translate(-107.955 -105.376)" fill="#030403"/>
        <path id="Trazado_1058169" data-name="Trazado 1058169" d="M87.382,50.546H83.443A1.044,1.044,0,0,0,82.4,51.588V62.705a1.044,1.044,0,0,0,1.042,1.042h3.939A27.456,27.456,0,0,1,67.424,83.709V80a1.044,1.044,0,0,0-1.042-1.042H55.261A1.044,1.044,0,0,0,54.219,80v3.712A27.485,27.485,0,0,1,34.253,63.747h3.939a1.042,1.042,0,0,0,1.046-1.042V51.588a1.042,1.042,0,0,0-1.046-1.042H34.253A27.479,27.479,0,0,1,54.219,30.58v3.712a1.044,1.044,0,0,0,1.042,1.042H66.383a1.044,1.044,0,0,0,1.042-1.042V30.58A27.468,27.468,0,0,1,87.382,50.546Zm6.141,2.083v9.034H84.485V52.63ZM65.341,90.082H56.307V81.044h9.034ZM28.125,61.664V52.63H37.15v9.034ZM56.307,24.216h9.034V33.25H56.307Zm10.076-2.084H55.261a1.044,1.044,0,0,0-1.042,1.042v5.264A29.541,29.541,0,0,0,32.11,50.546H27.079a1.044,1.044,0,0,0-1.042,1.042V62.705a1.044,1.044,0,0,0,1.042,1.042H32.11A29.554,29.554,0,0,0,54.219,85.856v5.268a1.044,1.044,0,0,0,1.042,1.042H66.383a1.044,1.044,0,0,0,1.042-1.042V85.856a29.543,29.543,0,0,0,22.1-22.109h5.04a1.044,1.044,0,0,0,1.042-1.042V51.588a1.044,1.044,0,0,0-1.042-1.042h-5.04a29.536,29.536,0,0,0-22.1-22.109V23.174a1.044,1.044,0,0,0-1.042-1.042Z" transform="translate(-26.037 -22.132)" fill="#030403"/>
        <path id="Trazado_1058170" data-name="Trazado 1058170" d="M210.481,200.207a7.927,7.927,0,1,1-7.929-7.925A7.939,7.939,0,0,1,210.481,200.207Zm-17.937,0A10.01,10.01,0,1,0,202.552,190.2,10.023,10.023,0,0,0,192.544,200.207Z" transform="translate(-167.77 -165.193)" fill="#030403"/>
        <path id="Trazado_1058171" data-name="Trazado 1058171" d="M53.167,238.061a1.045,1.045,0,0,0-1.472.08l-2.615,2.935-.924-.957a1.041,1.041,0,1,0-1.5,1.447l1.7,1.767a1.04,1.04,0,0,0,.746.316h.021a1.033,1.033,0,0,0,.759-.35l3.366-3.766a1.037,1.037,0,0,0-.084-1.472Z" transform="translate(-43.34 -205.707)" fill="#030403"/>
        <path id="Trazado_1058172" data-name="Trazado 1058172" d="M242.578,47.091a1.045,1.045,0,0,0-1.472.08l-2.615,2.935-.924-.962a1.041,1.041,0,1,0-1.5,1.447l1.7,1.771a1.057,1.057,0,0,0,.751.316h.021a1.029,1.029,0,0,0,.755-.35l3.361-3.771a1.033,1.033,0,0,0-.084-1.468Z" transform="translate(-204.569 -43.151)" fill="#030403"/>
        <path id="Trazado_1058173" data-name="Trazado 1058173" d="M237.773,434.3a1.057,1.057,0,0,0,.751.316h.021a1.045,1.045,0,0,0,.755-.35l3.361-3.771a1.033,1.033,0,0,0-.084-1.468,1.046,1.046,0,0,0-1.472.08l-2.615,2.935-.924-.957a1.042,1.042,0,0,0-1.5,1.451l1.7,1.763Z" transform="translate(-204.568 -368.263)" fill="#030403"/>
        <path id="Trazado_1058174" data-name="Trazado 1058174" d="M223.443,224.676v4.34h-1.632v-2.109a1.044,1.044,0,0,0-2.088,0v2.109h-.367a1.042,1.042,0,1,0,0,2.083h10.257a1.042,1.042,0,0,0,0-2.083h-.371v-5.829a1.04,1.04,0,1,0-2.079,0v5.829h-1.637v-4.34a1.042,1.042,0,0,0-2.083,0Z" transform="translate(-189.702 -192.385)" fill="#030403"/>
        <path id="Trazado_1058175" data-name="Trazado 1058175" d="M427.2,243.333a1.058,1.058,0,0,0,.751.316h.021a1.038,1.038,0,0,0,.755-.35l3.366-3.766a1.042,1.042,0,0,0-1.552-1.392l-2.619,2.935-.928-.957a1.04,1.04,0,1,0-1.493,1.447l1.7,1.767Z" transform="translate(-365.814 -205.707)" fill="#030403"/>
      </g>
    </g>
  </g>
</svg>
