<svg xmlns="http://www.w3.org/2000/svg" xmlns:xlink="http://www.w3.org/1999/xlink" width="113" height="113" viewBox="0 0 113 113">
  <defs>
    <filter id="Trazado_982547" x="0" y="0" width="113" height="113" filterUnits="userSpaceOnUse">
      <feOffset dy="3" input="SourceAlpha"/>
      <feGaussianBlur stdDeviation="3" result="blur"/>
      <feFlood flood-opacity="0.161"/>
      <feComposite operator="in" in2="blur"/>
      <feComposite in="SourceGraphic"/>
    </filter>
  </defs>
  <g id="Grupo_1226285" data-name="Grupo 1226285" transform="translate(-900.822 -9964.476)">
    <g id="Grupo_1225530" data-name="Grupo 1225530" transform="translate(0.313 8669.134)">
      <g id="Grupo_1225177" data-name="Grupo 1225177" transform="translate(0 -3445.654)">
        <g id="Grupo_1224648" data-name="Grupo 1224648" transform="translate(0 1927)">
          <g id="Grupo_1224293" data-name="Grupo 1224293" transform="translate(0 859.245)">
            <g id="Grupo_1224093" data-name="Grupo 1224093" transform="translate(226.51 -2620.317)">
              <g id="Grupo_1223184" data-name="Grupo 1223184" transform="translate(683 4581.069)">
                <g id="Grupo_1211216" data-name="Grupo 1211216" transform="translate(0)">
                  <g id="Grupo_1210737" data-name="Grupo 1210737">
                    <g id="Grupo_1210537" data-name="Grupo 1210537">
                      <g id="Grupo_1164202" data-name="Grupo 1164202">
                        <g id="Grupo_1158168" data-name="Grupo 1158168">
                          <g id="Grupo_1152576" data-name="Grupo 1152576">
                            <g id="Grupo_1148633" data-name="Grupo 1148633">
                              <g id="Grupo_1148525" data-name="Grupo 1148525">
                                <g transform="matrix(1, 0, 0, 1, -9, -6)" filter="url(#Trazado_982547)">
                                  <g id="Trazado_982547-2" data-name="Trazado 982547" transform="translate(9 6)" fill="#fdf6e4">
                                    <path d="M 47.49999618530273 93.5 C 41.28936767578125 93.5 35.26533126831055 92.28396606445312 29.59518241882324 89.88570404052734 C 24.11771583557129 87.56893157958984 19.19812965393066 84.251953125 14.97308921813965 80.02690124511719 C 10.74803638458252 75.80186462402344 7.431062698364258 70.88227844238281 5.114289283752441 65.40480804443359 C 2.716022968292236 59.73466110229492 1.499996185302734 53.71062469482422 1.499996185302734 47.49999618530273 C 1.499996185302734 41.28936767578125 2.716022968292236 35.26533126831055 5.114289283752441 29.59518241882324 C 7.431062698364258 24.11771583557129 10.74803638458252 19.19812965393066 14.97308921813965 14.97308921813965 C 19.19812965393066 10.74803638458252 24.11771583557129 7.431062698364258 29.59518241882324 5.114289283752441 C 35.26533126831055 2.716022968292236 41.28936767578125 1.499996185302734 47.49999618530273 1.499996185302734 C 53.71062469482422 1.499996185302734 59.73466110229492 2.716022968292236 65.40480804443359 5.114289283752441 C 70.88227844238281 7.431062698364258 75.80186462402344 10.74803638458252 80.02690124511719 14.97308921813965 C 84.251953125 19.19812965393066 87.56893157958984 24.11771583557129 89.88570404052734 29.59518241882324 C 92.28396606445312 35.26533126831055 93.5 41.28936767578125 93.5 47.49999618530273 C 93.5 53.71062469482422 92.28396606445312 59.73466110229492 89.88570404052734 65.40480804443359 C 87.56893157958984 70.88227844238281 84.251953125 75.80186462402344 80.02690124511719 80.02690124511719 C 75.80186462402344 84.251953125 70.88227844238281 87.56893157958984 65.40480804443359 89.88570404052734 C 59.73466110229492 92.28396606445312 53.71062469482422 93.5 47.49999618530273 93.5 Z" stroke="none"/>
                                    <path d="M 47.49999618530273 2.999992370605469 C 41.4912109375 2.999992370605469 35.66376495361328 4.1761474609375 30.17950439453125 6.495796203613281 C 24.88084411621094 8.736953735351562 20.12152099609375 11.94598388671875 16.03375244140625 16.03375244140625 C 11.94598388671875 20.12152099609375 8.736953735351562 24.88084411621094 6.495796203613281 30.17950439453125 C 4.1761474609375 35.66376495361328 2.999992370605469 41.4912109375 2.999992370605469 47.49999618530273 C 2.999992370605469 53.50878143310547 4.1761474609375 59.33622741699219 6.495796203613281 64.82048797607422 C 8.736953735351562 70.11914825439453 11.94598388671875 74.87847137451172 16.03375244140625 78.96623992919922 C 20.12152099609375 83.05400848388672 24.88084411621094 86.26304626464844 30.17950439453125 88.50419616699219 C 35.66376495361328 90.82384490966797 41.4912109375 92 47.49999618530273 92 C 53.50878143310547 92 59.33622741699219 90.82384490966797 64.82048797607422 88.50419616699219 C 70.11914825439453 86.26304626464844 74.87847137451172 83.05400848388672 78.96623992919922 78.96623992919922 C 83.05400848388672 74.87847137451172 86.26304626464844 70.11914825439453 88.50419616699219 64.82048797607422 C 90.82384490966797 59.33622741699219 92 53.50878143310547 92 47.49999618530273 C 92 41.4912109375 90.82384490966797 35.66376495361328 88.50419616699219 30.17950439453125 C 86.26304626464844 24.88084411621094 83.05400848388672 20.12152099609375 78.96623992919922 16.03375244140625 C 74.87847137451172 11.94598388671875 70.11914825439453 8.736953735351562 64.82048797607422 6.495796203613281 C 59.33622741699219 4.1761474609375 53.50878143310547 2.999992370605469 47.49999618530273 2.999992370605469 M 47.49999618530273 -7.62939453125e-06 C 73.7335205078125 -7.62939453125e-06 95 21.26647186279297 95 47.49999618530273 C 95 73.7335205078125 73.7335205078125 95 47.49999618530273 95 C 21.26647186279297 95 -7.62939453125e-06 73.7335205078125 -7.62939453125e-06 47.49999618530273 C -7.62939453125e-06 21.26647186279297 21.26647186279297 -7.62939453125e-06 47.49999618530273 -7.62939453125e-06 Z" stroke="none" fill="#f5b104"/>
                                  </g>
                                </g>
                              </g>
                            </g>
                          </g>
                        </g>
                      </g>
                    </g>
                  </g>
                </g>
              </g>
            </g>
          </g>
        </g>
      </g>
    </g>
    <g id="Data" transform="translate(925.076 9986.09)">
      <path id="Trazado_1058176" data-name="Trazado 1058176" d="M55.467,46.582V4.94H22.756L3.1,5.6V46.582Z" transform="translate(3.504 3.856)" fill="#eae2f9"/>
      <path id="Trazado_1058177" data-name="Trazado 1058177" d="M14.665,3.46a12.785,12.785,0,1,0,9.06,3.734,12.815,12.815,0,0,0-9.06-3.734Zm0,7.856h.149a4.869,4.869,0,1,1-.149,0" transform="translate(1.02 0.915)" fill="#f94060"/>
      <path id="Trazado_1058178" data-name="Trazado 1058178" d="M24.386,46.582V4.94H20.861L18.74,5.6V46.582Z" transform="translate(34.585 3.856)" fill="#c0c3ee"/>
      <path id="Trazado_1058179" data-name="Trazado 1058179" d="M16.535,13H25.5a3.405,3.405,0,0,1,0,6.811H16.535a3.405,3.405,0,1,1,0-6.811" transform="translate(23.436 19.873)" fill="#96ccee"/>
      <path id="Trazado_1058180" data-name="Trazado 1058180" d="M1.86,17.1v6.243a4.033,4.033,0,0,0,4.063,4.033h51.65a4,4,0,0,0,4.033-4.033V17.1H42.039v3.913H21.427V17.1Z" transform="translate(1.04 28.021)" fill="#9293a5"/>
      <path id="Trazado_1058181" data-name="Trazado 1058181" d="M22.423,17.1v6.243a4,4,0,0,1-4.033,4.033h6.333a4,4,0,0,0,4.033-4.033V17.1Z" transform="translate(33.889 28.021)" fill="#6f7188"/>
      <path id="Trazado_1058182" data-name="Trazado 1058182" d="M7.63,3.46a14.159,14.159,0,0,0-2.24.179,12.785,12.785,0,0,1,0,25.242,13.054,13.054,0,0,0,2.151.179,12.815,12.815,0,0,0,0-25.6Z" transform="translate(8.055 0.915)" fill="#d62657"/>
      <path id="Trazado_1058183" data-name="Trazado 1058183" d="M6.963,56.771h51.65a5.526,5.526,0,0,0,5.526-5.526V45.121a1.494,1.494,0,0,0-1.494-1.494H60.434V8.8A1.494,1.494,0,0,0,58.941,7.3H26.051A14.219,14.219,0,0,0,15.715,3,14.219,14.219,0,0,0,5.14,26.9V43.627H2.9a1.523,1.523,0,0,0-1.494,1.494v6.243a5.526,5.526,0,0,0,5.556,5.407Zm50.485-46.6V43.627H43.078a1.523,1.523,0,0,0-1.494,1.494v2.42H23.96v-2.42a1.494,1.494,0,0,0-1.494-1.494H8.1v-14.4a14.16,14.16,0,0,0,7.617,2.24,14.667,14.667,0,0,0,4.451-.777l3.7,6.423a1.553,1.553,0,0,0,1.285.747H35.312a4.929,4.929,0,0,0,4.66,3.405h8.962a4.9,4.9,0,0,0,0-9.8H39.972a4.929,4.929,0,0,0-4.66,3.405h-9.29l-2.987-5.437a14.07,14.07,0,0,0,5.258-19.148ZM38.06,36.219a1.882,1.882,0,0,1,1.912-1.882h8.962a1.912,1.912,0,1,1,0,3.824H39.972a1.912,1.912,0,0,1-1.912-1.912ZM17.179,5.988a11.262,11.262,0,0,1,9.679,9.679H21.929a6.512,6.512,0,0,0-4.75-4.75Zm-1.494,7.707A3.435,3.435,0,1,1,12.25,17.13a3.435,3.435,0,0,1,3.435-3.435ZM4.393,17.16a11.262,11.262,0,0,1,9.8-11.172v4.929a6.423,6.423,0,1,0,7.737,7.737h4.929A11.292,11.292,0,0,1,4.393,17.16Zm0,29.454H20.973v2.42a1.523,1.523,0,0,0,1.494,1.494H43.078a1.494,1.494,0,0,0,1.494-1.494v-2.42H61.151v4.75A2.539,2.539,0,0,1,58.612,53.9H6.963a2.539,2.539,0,0,1-2.569-2.539Z" transform="translate(0 0)"/>
      <path id="Trazado_1058184" data-name="Trazado 1058184" d="M25.646,10.31H14.534a1.494,1.494,0,0,0,0,2.987H25.646A1.494,1.494,0,0,0,27.14,11.8a1.523,1.523,0,0,0-1.494-1.494Z" transform="translate(23.257 14.527)"/>
      <path id="Trazado_1058185" data-name="Trazado 1058185" d="M14.534,11.747H21.4a1.494,1.494,0,0,0,0-2.987H14.534a1.494,1.494,0,0,0,0,2.987Z" transform="translate(23.257 11.447)"/>
      <path id="Trazado_1058186" data-name="Trazado 1058186" d="M14.534,10.2H25.646a1.494,1.494,0,0,0,0-2.987H14.534a1.494,1.494,0,0,0,0,2.987Z" transform="translate(23.257 8.367)"/>
    </g>
  </g>
</svg>
