<svg xmlns="http://www.w3.org/2000/svg" xmlns:xlink="http://www.w3.org/1999/xlink" width="113" height="113" viewBox="0 0 113 113">
  <defs>
    <filter id="Trazado_982547" x="0" y="0" width="113" height="113" filterUnits="userSpaceOnUse">
      <feOffset dy="3" input="SourceAlpha"/>
      <feGaussianBlur stdDeviation="3" result="blur"/>
      <feFlood flood-opacity="0.161"/>
      <feComposite operator="in" in2="blur"/>
      <feComposite in="SourceGraphic"/>
    </filter>
  </defs>
  <g id="Grupo_1226287" data-name="Grupo 1226287" transform="translate(-1216.545 -9964.476)">
    <g id="Grupo_1225531" data-name="Grupo 1225531" transform="translate(0.313 8669.134)">
      <g id="Grupo_1225179" data-name="Grupo 1225179" transform="translate(0 -3445.654)">
        <g id="Grupo_1224650" data-name="Grupo 1224650" transform="translate(0 1927)">
          <g id="Grupo_1224294" data-name="Grupo 1224294" transform="translate(0.723 859.245)">
            <g id="Grupo_1224094" data-name="Grupo 1224094" transform="translate(541.51 -2620.317)">
              <g id="Grupo_1223184" data-name="Grupo 1223184" transform="translate(683 4581.069)">
                <g id="Grupo_1211216" data-name="Grupo 1211216" transform="translate(0)">
                  <g id="Grupo_1210737" data-name="Grupo 1210737">
                    <g id="Grupo_1210537" data-name="Grupo 1210537">
                      <g id="Grupo_1164202" data-name="Grupo 1164202">
                        <g id="Grupo_1158168" data-name="Grupo 1158168">
                          <g id="Grupo_1152576" data-name="Grupo 1152576">
                            <g id="Grupo_1148633" data-name="Grupo 1148633">
                              <g id="Grupo_1148525" data-name="Grupo 1148525">
                                <g transform="matrix(1, 0, 0, 1, -9, -6)" filter="url(#Trazado_982547)">
                                  <g id="Trazado_982547-2" data-name="Trazado 982547" transform="translate(9 6)" fill="#fdf6e4">
                                    <path d="M 47.49999618530273 93.5 C 41.28936767578125 93.5 35.26533126831055 92.28396606445312 29.59518241882324 89.88570404052734 C 24.11771583557129 87.56893157958984 19.19812965393066 84.251953125 14.97308921813965 80.02690124511719 C 10.74803638458252 75.80186462402344 7.431062698364258 70.88227844238281 5.114289283752441 65.40480804443359 C 2.716022968292236 59.73466110229492 1.499996185302734 53.71062469482422 1.499996185302734 47.49999618530273 C 1.499996185302734 41.28936767578125 2.716022968292236 35.26533126831055 5.114289283752441 29.59518241882324 C 7.431062698364258 24.11771583557129 10.74803638458252 19.19812965393066 14.97308921813965 14.97308921813965 C 19.19812965393066 10.74803638458252 24.11771583557129 7.431062698364258 29.59518241882324 5.114289283752441 C 35.26533126831055 2.716022968292236 41.28936767578125 1.499996185302734 47.49999618530273 1.499996185302734 C 53.71062469482422 1.499996185302734 59.73466110229492 2.716022968292236 65.40480804443359 5.114289283752441 C 70.88227844238281 7.431062698364258 75.80186462402344 10.74803638458252 80.02690124511719 14.97308921813965 C 84.251953125 19.19812965393066 87.56893157958984 24.11771583557129 89.88570404052734 29.59518241882324 C 92.28396606445312 35.26533126831055 93.5 41.28936767578125 93.5 47.49999618530273 C 93.5 53.71062469482422 92.28396606445312 59.73466110229492 89.88570404052734 65.40480804443359 C 87.56893157958984 70.88227844238281 84.251953125 75.80186462402344 80.02690124511719 80.02690124511719 C 75.80186462402344 84.251953125 70.88227844238281 87.56893157958984 65.40480804443359 89.88570404052734 C 59.73466110229492 92.28396606445312 53.71062469482422 93.5 47.49999618530273 93.5 Z" stroke="none"/>
                                    <path d="M 47.49999618530273 2.999992370605469 C 41.4912109375 2.999992370605469 35.66376495361328 4.1761474609375 30.17950439453125 6.495796203613281 C 24.88084411621094 8.736953735351562 20.12152099609375 11.94598388671875 16.03375244140625 16.03375244140625 C 11.94598388671875 20.12152099609375 8.736953735351562 24.88084411621094 6.495796203613281 30.17950439453125 C 4.1761474609375 35.66376495361328 2.999992370605469 41.4912109375 2.999992370605469 47.49999618530273 C 2.999992370605469 53.50878143310547 4.1761474609375 59.33622741699219 6.495796203613281 64.82048797607422 C 8.736953735351562 70.11914825439453 11.94598388671875 74.87847137451172 16.03375244140625 78.96623992919922 C 20.12152099609375 83.05400848388672 24.88084411621094 86.26304626464844 30.17950439453125 88.50419616699219 C 35.66376495361328 90.82384490966797 41.4912109375 92 47.49999618530273 92 C 53.50878143310547 92 59.33622741699219 90.82384490966797 64.82048797607422 88.50419616699219 C 70.11914825439453 86.26304626464844 74.87847137451172 83.05400848388672 78.96623992919922 78.96623992919922 C 83.05400848388672 74.87847137451172 86.26304626464844 70.11914825439453 88.50419616699219 64.82048797607422 C 90.82384490966797 59.33622741699219 92 53.50878143310547 92 47.49999618530273 C 92 41.4912109375 90.82384490966797 35.66376495361328 88.50419616699219 30.17950439453125 C 86.26304626464844 24.88084411621094 83.05400848388672 20.12152099609375 78.96623992919922 16.03375244140625 C 74.87847137451172 11.94598388671875 70.11914825439453 8.736953735351562 64.82048797607422 6.495796203613281 C 59.33622741699219 4.1761474609375 53.50878143310547 2.999992370605469 47.49999618530273 2.999992370605469 M 47.49999618530273 -7.62939453125e-06 C 73.7335205078125 -7.62939453125e-06 95 21.26647186279297 95 47.49999618530273 C 95 73.7335205078125 73.7335205078125 95 47.49999618530273 95 C 21.26647186279297 95 -7.62939453125e-06 73.7335205078125 -7.62939453125e-06 47.49999618530273 C -7.62939453125e-06 21.26647186279297 21.26647186279297 -7.62939453125e-06 47.49999618530273 -7.62939453125e-06 Z" stroke="none" fill="#f5b104"/>
                                  </g>
                                </g>
                              </g>
                            </g>
                          </g>
                        </g>
                      </g>
                    </g>
                  </g>
                </g>
              </g>
            </g>
          </g>
        </g>
      </g>
    </g>
    <g id="policy_17810768" transform="translate(1219.511 9966.217)">
      <g id="Grupo_1226286" data-name="Grupo 1226286" transform="translate(24.593 22.316)">
        <path id="Trazado_1058187" data-name="Trazado 1058187" d="M164.368,29.26H137.457a3.036,3.036,0,0,0-3.127,2.915v48.01a3.035,3.035,0,0,0,3.127,2.915h39.181a3.038,3.038,0,0,0,3.127-2.915V43.615l-7.912-7.378Z" transform="translate(-120.88 -29.26)" fill="#fc9" fill-rule="evenodd"/>
        <path id="Trazado_1058188" data-name="Trazado 1058188" d="M367.016,43.615h12.27L371.8,36.634,363.89,29.26V40.7A3.036,3.036,0,0,0,367.016,43.615Z" transform="translate(-320.4 -29.26)" fill="#ccc" fill-rule="evenodd"/>
        <path id="Trazado_1058189" data-name="Trazado 1058189" d="M179.74,29.26h9.686V40.97l-4.842-5.131L179.74,40.97Z" transform="translate(-160.348 -29.26)" fill="#cc4242" fill-rule="evenodd"/>
        <path id="Trazado_1058190" data-name="Trazado 1058190" d="M44.994,250.423c-15.045-7.808-13.535-8.748-13.3-27.25a22.511,22.511,0,0,0,13.3-7.2,22.514,22.514,0,0,0,13.3,7.2c.238,18.5,1.747,19.441-13.3,27.25Z" transform="translate(-31.544 -191.538)" fill="#fb8500" fill-rule="evenodd"/>
        <path id="Trazado_1058191" data-name="Trazado 1058191" d="M69.976,277.58c-10.839-5.623-9.751-6.3-9.577-19.63a16.212,16.212,0,0,0,9.577-5.19,16.226,16.226,0,0,0,9.577,5.19C79.728,271.281,80.815,271.957,69.976,277.58Z" transform="translate(-56.526 -223.514)" fill="#fedc97" fill-rule="evenodd"/>
        <path id="Trazado_1058192" data-name="Trazado 1058192" d="M92.542,299.54a6.292,6.292,0,1,1-6.292,6.292A6.292,6.292,0,0,1,92.542,299.54Z" transform="translate(-79.091 -264.172)" fill="#9c3" fill-rule="evenodd"/>
        <path id="Trazado_1058193" data-name="Trazado 1058193" d="M314.47,175.83h16.751v6.7H314.47Z" transform="translate(-277.447 -156.65)" fill="#9c3" fill-rule="evenodd"/>
        <path id="Trazado_1058194" data-name="Trazado 1058194" d="M276.86,269.12H283.8v18.128H276.86Z" transform="translate(-244.759 -237.733)" fill="#9c3" fill-rule="evenodd"/>
      </g>
      <path id="Trazado_1058195" data-name="Trazado 1058195" d="M45.926,43.832a1.048,1.048,0,0,1,0-2.1H55.952a1.048,1.048,0,0,1,0,2.1Zm0,4.122a1.046,1.046,0,1,1,0-2.091H55.952a1.046,1.046,0,0,1,0,2.091ZM68.045,70.789a1.048,1.048,0,0,1,0-2.1H79.773a1.048,1.048,0,0,1,0,2.1Zm0-4.648a1.048,1.048,0,0,1,0-2.1H79.773a1.048,1.048,0,0,1,0,2.1Zm0-4.648a1.048,1.048,0,0,1,0-2.1H79.773a1.048,1.048,0,0,1,0,2.1Zm0-4.652a1.046,1.046,0,0,1,0-2.091H79.773a1.046,1.046,0,0,1,0,2.091ZM56.694,52.657h6.941A1.044,1.044,0,0,1,64.68,53.7V71.834a1.044,1.044,0,0,1-1.046,1.046H56.694a1.047,1.047,0,0,1-1.046-1.046V53.7A1.045,1.045,0,0,1,56.694,52.657Zm5.894,2.092H57.744V70.789h4.844Zm-.972-14.3H78.367A1.044,1.044,0,0,1,79.412,41.5v6.7a1.044,1.044,0,0,1-1.046,1.046H61.616A1.044,1.044,0,0,1,60.57,48.2V41.5A1.044,1.044,0,0,1,61.616,40.45Zm15.705,2.092H62.663V47.15h14.66V42.542ZM34.345,65.562a1.047,1.047,0,0,1,1.48-1.48l1.354,1.35,2.7-4.458a1.042,1.042,0,0,1,1.784,1.08L38.321,67.57a1.045,1.045,0,0,1-1.684.281Zm3.7-8.924a7.337,7.337,0,1,1-7.337,7.337,7.339,7.339,0,0,1,7.337-7.337Zm3.706,3.631a5.243,5.243,0,1,0,0,7.414A5.242,5.242,0,0,0,41.749,60.269Zm-4.191,17.04c-10.442-5.419-10.42-6.5-10.194-17.3.018-1.009.041-2.1.056-3.271a1.045,1.045,0,0,1,.879-1.017,15.213,15.213,0,0,0,8.962-4.848,1.045,1.045,0,0,1,1.569,0,15.228,15.228,0,0,0,8.955,4.844,1.044,1.044,0,0,1,.883,1.053c.014,1.154.037,2.236.056,3.235.226,10.8.249,11.878-10.2,17.3A1.047,1.047,0,0,1,37.558,77.309ZM29.449,60.053c-.2,9.452-.219,10.546,8.595,15.153,8.813-4.607,8.791-5.7,8.595-15.153-.014-.752-.034-1.559-.044-2.43a17.255,17.255,0,0,1-8.55-4.543,17.261,17.261,0,0,1-8.55,4.543c-.01.873-.029,1.678-.044,2.43Zm8.109,22.07c-14.274-7.4-14.244-8.88-13.936-23.643.03-1.395.059-2.912.081-4.541a1.045,1.045,0,0,1,.879-1.021,21.913,21.913,0,0,0,6.992-2.37A20.971,20.971,0,0,0,37,46.35V25.231a4.085,4.085,0,0,1,4.173-3.961H68.08v0a1.046,1.046,0,0,1,.712.279L84.138,35.859a1.052,1.052,0,0,1,.386.813V73.242A4.085,4.085,0,0,1,80.351,77.2H47.02a70.129,70.129,0,0,1-8.5,4.929A1.045,1.045,0,0,1,37.558,82.124ZM39.09,46.351A21.54,21.54,0,0,0,51.506,52.92a1.041,1.041,0,0,1,.879,1.053c.022,1.613.052,3.12.081,4.507.19,9.076.271,13.131-3.008,16.629h30.9a1.99,1.99,0,0,0,2.077-1.87V37.716H71.209a4.088,4.088,0,0,1-4.173-3.961V23.365H54.721V34.026a1.049,1.049,0,0,1-1.858.663l-4.032-4.274L44.747,34.74a1.045,1.045,0,0,1-1.8-.716h0V23.365H41.171a1.989,1.989,0,0,0-2.081,1.866ZM25.706,58.521c-.279,13.417-.308,14.907,12.337,21.5,12.645-6.6,12.616-8.087,12.337-21.5-.026-1.138-.048-2.363-.071-3.694a23.552,23.552,0,0,1-12.267-6.551,23.567,23.567,0,0,1-12.267,6.551c-.022,1.332-.044,2.556-.071,3.694ZM45.032,23.365V31.4l3.038-3.216a1.046,1.046,0,0,1,1.521,0L52.626,31.4V23.365ZM71.209,35.624h9.614L69.131,24.718v9.036A1.991,1.991,0,0,0,71.209,35.624Z" transform="translate(0)"/>
    </g>
  </g>
</svg>
